<?xml version="1.0" encoding="utf-8"?>
<!-- Generator: Adobe Illustrator 27.5.0, SVG Export Plug-In . SVG Version: 6.00 Build 0)  -->
<svg version="1.1" id="Layer_1" xmlns="http://www.w3.org/2000/svg" xmlns:xlink="http://www.w3.org/1999/xlink" x="0px" y="0px"
	 viewBox="0 0 1500 1000" style="enable-background:new 0 0 1500 1000;" xml:space="preserve">
<rect style="fill:#FFFFFF;" width="1500" height="1000"/>
<g>
	<g>
		<path style="fill:#FFC950;" d="M1394.929,755.328c-4.106,4.323-9.088,8.215-14.153,11.589
			c-11.072,7.385-22.53,12.299-26.12,13.815c-5.27,2.227-10.584,4.216-15.922,6.007c3.681,4.884,7.345,9.798,11.005,14.735
			c5.36,7.249,10.692,14.557,15.989,21.924c1.084,1.504,2.167,3.021,3.251,4.532c15.059,21.041,29.813,42.648,44.255,64.781
			c5.643,8.646,5.45,16.76,2.026,24.068H170.844c-7.572-6.968-15.156-13.912-22.734-20.855v-489.51
			c0.181-0.084,0.357-0.167,0.533-0.245c0.51-0.227,1.01-0.454,1.509-0.669c0.743-0.328,1.48-0.651,2.201-0.961
			c0.624-0.269,1.236-0.531,1.849-0.788c1.174-0.495,2.314-0.979,3.415-1.445c1.854-0.782,3.709-1.534,5.576-2.257
			c5.951-2.323,11.952-4.365,17.987-6.15c-5.797-5.577-11.571-11.219-17.317-16.927c-4.181-4.143-8.344-8.329-12.49-12.556
			c-1.736-1.761-3.466-3.528-5.19-5.308c-5.593-7.338-6.104-15.5-1.543-24.486c2.479-4.764,5.57-8.896,9.042-12.514
			c10.25-10.675,23.823-16.861,34.731-21.494c1.191-0.508,2.366-0.997,3.494-1.475c3.664-1.552,7.363-2.979,11.067-4.317
			c-1.776-1.499-3.568-2.997-5.355-4.496c-5.598-7.338-6.109-15.5-1.549-24.485c2.734-5.242,6.206-9.726,10.12-13.595
			c10.942-10.843,25.293-16.891,36.223-21.494c0.307-0.132,0.624-0.263,0.93-0.394c26.614-11.243,54.386-16.801,81.873-17.995
			c20.726-0.895,45.213-1.17,65.055,10.813c3.528,2.132,7.051,4.299,10.556,6.496c4.941-2.412,9.728-4.406,13.965-6.191
			c11.668-4.926,23.653-9.033,35.815-12.138c0.431-2.322,1.27-4.788,2.632-7.403c10.59-20.36,32.411-29.208,47.272-35.483
			c5.814-2.46,11.696-4.627,17.612-6.556c11.498-15.052,29.547-22.407,42.389-27.835c26.62-11.236,54.386-16.801,81.868-17.989
			c21.43-0.931,304.311-62.219,550.98,114.677c9.394,6.735,17.777,14.431,26.071,21.494c19.933,16.95,37.527,33.244,52.213,48.368
			c7.271,7.469,13.823,14.658,19.591,21.494c16.507,19.53,26.689,36.241,28.958,48.708c3.335,18.312-8.997,58.947-19.609,70.071
			c41.855,30.032,83.904,59.401,126.922,84.92c8.316,4.932,22.087,16.234,12.99,33.74c-4.526,8.699-11.101,15.296-18.311,20.491
			c-3.72,2.687-7.634,5.003-11.503,7.033C1440.84,616.016,1465.557,725.632,1394.929,755.328z"/>
		<g style="opacity:0.4;">
			<path style="fill:#FFB14D;" d="M1415.259,916.779H170.844c-7.572-6.968-15.156-13.912-22.734-20.855V422.581
				c0.516-0.227,1.027-0.454,1.526-0.675c8.457-3.732,17.028-6.896,25.661-9.571c-4.044-4.066-8.077-8.162-12.105-12.287
				c-6.818-6.998-13.607-14.085-20.363-21.267c7.022-0.896,14.033-1.493,21.033-1.809c0.045,0,0.096-0.006,0.142-0.006
				c22.57-1.021,49.247-1.331,70.852,12.306c3.846,2.424,7.674,4.896,11.503,7.397c5.383-2.746,10.59-5.021,15.207-7.051
				c12.706-5.606,25.758-10.281,39.003-13.816c0.477-2.645,1.384-5.451,2.865-8.425c11.543-23.178,35.304-33.25,51.493-40.391
				c6.33-2.8,12.734-5.272,19.184-7.463c12.524-17.135,32.173-25.506,46.155-31.686c28.997-12.789,59.247-19.124,89.168-20.479
				c23.341-1.057,47.068,0.693,69.604,11.703c1.344-0.412,2.694-0.818,4.027-1.212c29.484-8.741,59.882-12.706,89.809-9.917
				c19.603,1.827,38.027,6.036,55.259,22.264c11.379,10.717,22.831,21.219,34.334,31.549c8.446-10.706,18.004-19.219,26.552-25.912
				c27.221-21.345,57.658-32.707,87.614-35.268c9.461,0.227,18.923,0.454,28.384,0.681c15.639,1.564,30.494,7.983,44.578,19.255
				c58.929,38.253,113.763,78.8,159.919,117.399c9.874,8.257,19.359,16.425,28.395,24.467c21.709,19.291,40.869,37.836,56.87,55.055
				c7.919,8.502,15.055,16.682,21.34,24.467c17.975,22.228,29.064,41.251,31.538,55.443c3.63,20.843-9.801,67.097-21.357,79.761
				c45.583,34.187,91.375,67.617,138.228,96.663c8.241,5.105,21.384,16.204,16.25,33.161c-11.072,7.385-22.53,12.299-26.12,13.815
				c-5.27,2.227-10.584,4.216-15.922,6.007c3.681,4.884,7.345,9.798,11.005,14.735c-1.174,0.704-2.354,1.374-3.535,2.019
				c6.534,6.556,13.047,13.189,19.524,19.906c1.084,1.504,2.167,3.021,3.251,4.532c15.059,21.041,29.813,42.648,44.255,64.781
				C1418.877,901.357,1418.684,909.471,1415.259,916.779z"/>
		</g>
		<g>
			<g>
				<g style="opacity:0.6;">
					<ellipse style="fill:#FFC950;" cx="1154.122" cy="283.703" rx="38.846" ry="45.182"/>
				</g>
				<g style="opacity:0.8;">
					<path style="fill:#FFC950;" d="M1180.275,302.166c0,16.799-11.708,30.419-26.153,30.419c-14.444,0-26.154-13.62-26.154-30.419
						c0-16.8,11.71-30.419,26.154-30.419C1168.567,271.746,1180.275,285.366,1180.275,302.166z"/>
				</g>
			</g>
			<g>
				<rect x="1120.455" y="318.359" style="fill:#352420;" width="64.847" height="87.636"/>
				<g>
					<rect x="1125.701" y="309.473" style="fill:#FFFFFF;" width="34.98" height="88.089"/>
				</g>
				<path style="fill:#EFECDF;" d="M1160.681,352.524v45.039h-34.98v-41.246c4.195,3.215,8.545,5.182,12.495,5.259
					C1145.189,361.71,1153.137,358.269,1160.681,352.524z"/>
			</g>
		</g>
	</g>
	<g>
		<g>
			<rect x="169.916" y="77.653" style="fill:#56352C;" width="549.393" height="597.058"/>
			<rect x="160.735" y="94.939" style="fill:#352420;" width="490.838" height="562.486"/>
			<rect x="128.441" y="115.885" style="fill:#C0F3FF;" width="477.139" height="520.599"/>
			<g>
				<g>
					<rect x="127.395" y="253.148" style="fill:#83DBDD;" width="114.537" height="382.897"/>
					<g>
						<rect x="166.219" y="264.785" style="fill:#69B5B5;" width="75.713" height="8.962"/>
						<rect x="166.219" y="280.911" style="fill:#69B5B5;" width="75.713" height="8.956"/>
						<rect x="166.219" y="297.032" style="fill:#69B5B5;" width="75.713" height="8.956"/>
						<rect x="166.219" y="313.152" style="fill:#69B5B5;" width="75.713" height="8.956"/>
						<rect x="166.219" y="329.279" style="fill:#69B5B5;" width="75.713" height="8.956"/>
						<rect x="166.219" y="345.399" style="fill:#69B5B5;" width="75.713" height="8.956"/>
						<rect x="166.219" y="361.52" style="fill:#69B5B5;" width="75.713" height="8.956"/>
						<rect x="166.219" y="377.64" style="fill:#69B5B5;" width="75.713" height="8.962"/>
						<rect x="166.219" y="393.767" style="fill:#69B5B5;" width="75.713" height="8.956"/>
						<rect x="166.219" y="409.888" style="fill:#69B5B5;" width="75.713" height="8.956"/>
						<rect x="166.219" y="426.008" style="fill:#69B5B5;" width="75.713" height="8.962"/>
						<rect x="166.219" y="442.134" style="fill:#69B5B5;" width="75.713" height="8.956"/>
						<rect x="166.219" y="458.255" style="fill:#69B5B5;" width="75.713" height="8.956"/>
						<rect x="166.219" y="474.376" style="fill:#69B5B5;" width="75.713" height="8.956"/>
						<rect x="166.219" y="490.502" style="fill:#69B5B5;" width="75.713" height="8.956"/>
						<rect x="166.219" y="506.623" style="fill:#69B5B5;" width="75.713" height="8.956"/>
						<rect x="166.219" y="522.743" style="fill:#69B5B5;" width="75.713" height="8.956"/>
						<rect x="166.219" y="538.864" style="fill:#69B5B5;" width="75.713" height="8.962"/>
						<rect x="166.219" y="554.99" style="fill:#69B5B5;" width="75.713" height="8.956"/>
						<rect x="166.219" y="571.111" style="fill:#69B5B5;" width="75.713" height="8.956"/>
						<rect x="166.219" y="587.232" style="fill:#69B5B5;" width="75.713" height="8.956"/>
						<rect x="166.219" y="603.358" style="fill:#69B5B5;" width="75.713" height="8.956"/>
						<rect x="166.219" y="619.479" style="fill:#69B5B5;" width="75.713" height="8.956"/>
					</g>
				</g>
				<g>
					<rect x="230.29" y="348.09" style="fill:#83DBDD;" width="114.537" height="287.955"/>
					<g>
						<rect x="269.113" y="356.871" style="fill:#69B5B5;" width="75.713" height="6.763"/>
						<rect x="269.113" y="369.041" style="fill:#69B5B5;" width="75.713" height="6.758"/>
						<rect x="269.113" y="381.205" style="fill:#69B5B5;" width="75.713" height="6.758"/>
						<rect x="269.113" y="393.37" style="fill:#69B5B5;" width="75.713" height="6.758"/>
						<rect x="269.113" y="405.54" style="fill:#69B5B5;" width="75.713" height="6.758"/>
						<rect x="269.113" y="417.705" style="fill:#69B5B5;" width="75.713" height="6.759"/>
						<rect x="269.113" y="429.87" style="fill:#69B5B5;" width="75.713" height="6.758"/>
						<rect x="269.113" y="442.035" style="fill:#69B5B5;" width="75.713" height="6.763"/>
						<rect x="269.113" y="454.205" style="fill:#69B5B5;" width="75.713" height="6.758"/>
						<rect x="269.113" y="466.37" style="fill:#69B5B5;" width="75.713" height="6.759"/>
						<rect x="269.113" y="478.535" style="fill:#69B5B5;" width="75.713" height="6.763"/>
						<rect x="269.113" y="490.704" style="fill:#69B5B5;" width="75.713" height="6.758"/>
						<rect x="269.113" y="502.869" style="fill:#69B5B5;" width="75.713" height="6.758"/>
						<rect x="269.113" y="515.034" style="fill:#69B5B5;" width="75.713" height="6.759"/>
						<rect x="269.113" y="527.204" style="fill:#69B5B5;" width="75.713" height="6.758"/>
						<rect x="269.113" y="539.369" style="fill:#69B5B5;" width="75.713" height="6.758"/>
						<rect x="269.113" y="551.534" style="fill:#69B5B5;" width="75.713" height="6.758"/>
						<rect x="269.113" y="563.699" style="fill:#69B5B5;" width="75.713" height="6.763"/>
						<rect x="269.113" y="575.868" style="fill:#69B5B5;" width="75.713" height="6.758"/>
						<rect x="269.113" y="588.034" style="fill:#69B5B5;" width="75.713" height="6.758"/>
						<rect x="269.113" y="600.198" style="fill:#69B5B5;" width="75.713" height="6.759"/>
						<rect x="269.113" y="612.368" style="fill:#69B5B5;" width="75.713" height="6.758"/>
						<rect x="269.113" y="624.533" style="fill:#69B5B5;" width="75.713" height="6.758"/>
					</g>
				</g>
				<g>
					<rect x="324.359" y="228.518" style="fill:#83DBDD;" width="162.192" height="407.527"/>
					<g>
						<rect x="379.337" y="250.769" style="fill:#69B5B5;" width="107.215" height="17.136"/>
						<rect x="379.337" y="281.605" style="fill:#69B5B5;" width="107.215" height="17.125"/>
						<rect x="379.337" y="312.429" style="fill:#69B5B5;" width="107.215" height="17.125"/>
						<rect x="379.337" y="343.253" style="fill:#69B5B5;" width="107.215" height="17.125"/>
						<rect x="379.337" y="374.09" style="fill:#69B5B5;" width="107.215" height="17.125"/>
						<rect x="379.337" y="404.914" style="fill:#69B5B5;" width="107.215" height="17.125"/>
						<rect x="379.337" y="435.738" style="fill:#69B5B5;" width="107.215" height="17.125"/>
						<rect x="379.337" y="466.563" style="fill:#69B5B5;" width="107.215" height="17.136"/>
						<rect x="379.337" y="497.4" style="fill:#69B5B5;" width="107.215" height="17.125"/>
						<rect x="379.337" y="528.223" style="fill:#69B5B5;" width="107.215" height="17.126"/>
						<rect x="379.337" y="559.048" style="fill:#69B5B5;" width="107.215" height="17.136"/>
						<rect x="379.337" y="589.884" style="fill:#69B5B5;" width="107.215" height="17.125"/>
						<rect x="379.337" y="620.709" style="fill:#69B5B5;" width="107.215" height="15.336"/>
					</g>
				</g>
				<g>
					<rect x="518.496" y="319.875" style="fill:#83DBDD;" width="87.083" height="316.17"/>
					<g>
						<rect x="573.477" y="337.19" style="fill:#69B5B5;" width="32.102" height="13.332"/>
						<rect x="573.477" y="361.179" style="fill:#69B5B5;" width="32.102" height="13.321"/>
						<rect x="573.477" y="385.163" style="fill:#69B5B5;" width="32.102" height="13.321"/>
						<rect x="573.477" y="409.141" style="fill:#69B5B5;" width="32.102" height="13.326"/>
						<rect x="573.477" y="433.137" style="fill:#69B5B5;" width="32.102" height="13.32"/>
						<rect x="573.477" y="457.115" style="fill:#69B5B5;" width="32.102" height="13.326"/>
						<rect x="573.477" y="481.099" style="fill:#69B5B5;" width="32.102" height="13.32"/>
						<rect x="573.477" y="505.082" style="fill:#69B5B5;" width="32.102" height="13.332"/>
						<rect x="573.477" y="529.072" style="fill:#69B5B5;" width="32.102" height="13.32"/>
						<rect x="573.477" y="553.05" style="fill:#69B5B5;" width="32.102" height="13.327"/>
						<rect x="573.477" y="577.034" style="fill:#69B5B5;" width="32.102" height="13.332"/>
						<rect x="573.477" y="601.024" style="fill:#69B5B5;" width="32.102" height="13.327"/>
						<rect x="573.477" y="625.007" style="fill:#69B5B5;" width="32.102" height="11.038"/>
					</g>
				</g>
				<g>
					<rect x="467.992" y="382.124" style="fill:#83DBDD;" width="101.182" height="253.921"/>
					<g>
						<rect x="502.29" y="389.883" style="fill:#69B5B5;" width="66.887" height="5.974"/>
						<rect x="502.29" y="400.634" style="fill:#69B5B5;" width="66.887" height="5.971"/>
						<rect x="502.29" y="411.381" style="fill:#69B5B5;" width="66.887" height="5.971"/>
						<rect x="502.29" y="422.128" style="fill:#69B5B5;" width="66.887" height="5.97"/>
						<rect x="502.29" y="432.879" style="fill:#69B5B5;" width="66.887" height="5.971"/>
						<rect x="502.29" y="443.626" style="fill:#69B5B5;" width="66.887" height="5.971"/>
						<rect x="502.29" y="454.373" style="fill:#69B5B5;" width="66.887" height="5.971"/>
						<rect x="502.29" y="465.12" style="fill:#69B5B5;" width="66.887" height="5.975"/>
						<rect x="502.29" y="475.871" style="fill:#69B5B5;" width="66.887" height="5.971"/>
						<rect x="502.29" y="486.618" style="fill:#69B5B5;" width="66.887" height="5.971"/>
						<rect x="502.29" y="497.365" style="fill:#69B5B5;" width="66.887" height="5.975"/>
						<rect x="502.29" y="508.116" style="fill:#69B5B5;" width="66.887" height="5.971"/>
						<rect x="502.29" y="518.863" style="fill:#69B5B5;" width="66.887" height="5.971"/>
						<rect x="502.29" y="529.61" style="fill:#69B5B5;" width="66.887" height="5.971"/>
						<rect x="502.29" y="540.361" style="fill:#69B5B5;" width="66.887" height="5.971"/>
						<rect x="502.29" y="551.108" style="fill:#69B5B5;" width="66.887" height="5.971"/>
						<rect x="502.29" y="561.855" style="fill:#69B5B5;" width="66.887" height="5.971"/>
						<rect x="502.29" y="572.602" style="fill:#69B5B5;" width="66.887" height="5.975"/>
						<rect x="502.29" y="583.353" style="fill:#69B5B5;" width="66.887" height="5.971"/>
						<rect x="502.29" y="594.1" style="fill:#69B5B5;" width="66.887" height="5.971"/>
						<rect x="502.29" y="604.847" style="fill:#69B5B5;" width="66.887" height="5.971"/>
						<rect x="502.29" y="615.598" style="fill:#69B5B5;" width="66.887" height="5.97"/>
						<rect x="502.29" y="626.345" style="fill:#69B5B5;" width="66.887" height="5.971"/>
					</g>
				</g>
			</g>
			<g>
				<g style="opacity:0.4;">
					<polygon style="fill:#C0F3FF;" points="601.317,115.885 429.03,636.484 351.926,636.484 524.213,115.885 					"/>
				</g>
				<g style="opacity:0.4;">
					<polygon style="fill:#C0F3FF;" points="605.58,244.819 605.58,321.876 501.459,636.484 475.958,636.484 					"/>
				</g>
			</g>
			<g>
				<rect x="544.102" y="107.597" style="fill:#C6C6B6;" width="106.866" height="555.319"/>
				<rect x="549.893" y="107.597" style="fill:#D6D6C9;" width="6.317" height="555.319"/>
				<rect x="560.421" y="107.597" style="fill:#D6D6C9;" width="6.317" height="555.319"/>
				<rect x="570.95" y="107.597" style="fill:#D6D6C9;" width="6.317" height="555.319"/>
				<rect x="581.479" y="107.597" style="fill:#D6D6C9;" width="6.317" height="555.319"/>
				<rect x="592.007" y="107.597" style="fill:#D6D6C9;" width="6.317" height="555.319"/>
				<rect x="602.536" y="107.597" style="fill:#D6D6C9;" width="6.317" height="555.319"/>
				<rect x="613.064" y="107.597" style="fill:#D6D6C9;" width="6.317" height="555.319"/>
				<rect x="623.593" y="107.597" style="fill:#D6D6C9;" width="6.317" height="555.319"/>
			</g>
			<g>
				<g style="opacity:0.4;">
					<polygon style="fill:#C0F3FF;" points="361.753,115.885 189.466,636.484 128.441,636.484 128.441,587.901 284.649,115.885 
											"/>
				</g>
				<g style="opacity:0.4;">
					<polygon style="fill:#C0F3FF;" points="434.188,115.885 261.901,636.484 236.401,636.484 408.688,115.885 					"/>
				</g>
			</g>
			<g>
				<rect x="128.642" y="106.999" style="fill:#C6C6B6;" width="146.985" height="555.917"/>
				<rect x="258.974" y="106.999" style="fill:#D6D6C9;" width="8.689" height="555.917"/>
				<rect x="244.492" y="106.999" style="fill:#D6D6C9;" width="8.689" height="555.917"/>
				<rect x="230.011" y="106.999" style="fill:#D6D6C9;" width="8.689" height="555.917"/>
				<rect x="215.53" y="106.999" style="fill:#D6D6C9;" width="8.689" height="555.917"/>
				<rect x="201.049" y="106.999" style="fill:#D6D6C9;" width="8.689" height="555.917"/>
				<rect x="186.568" y="106.999" style="fill:#D6D6C9;" width="8.689" height="555.917"/>
				<rect x="172.087" y="106.999" style="fill:#D6D6C9;" width="8.689" height="555.917"/>
				<rect x="157.605" y="106.999" style="fill:#D6D6C9;" width="8.689" height="555.917"/>
			</g>
			<rect x="718.434" y="77.695" style="fill:#D8DB8D;" width="31.803" height="596.973"/>
			<g>
				<rect x="412.417" y="106.699" style="fill:#352420;" width="24.811" height="539.197"/>
				<rect x="422.055" y="106.699" style="fill:#7C4E3E;" width="13.472" height="539.197"/>
			</g>
			<rect x="92.552" y="76.459" style="fill:#D8DB8D;" width="82.098" height="599.446"/>
		</g>
		<g>
			<g>
				<rect x="91.649" y="677.431" style="fill:#352420;" width="698.901" height="232.69"/>
				<rect x="228.609" y="677.431" style="fill:#7C4E3E;" width="561.941" height="232.69"/>
			</g>
			<g>
				<path style="fill:#352420;" d="M811.907,676.824v3.036c0,6.689-5.938,12.118-13.254,12.118H83.546
					c-7.323,0-13.254-5.429-13.254-12.118v-3.036c0-6.689,5.931-12.118,13.254-12.118h715.107
					C805.969,664.706,811.907,670.135,811.907,676.824z"/>
				<path style="fill:#7C4E3E;" d="M811.907,676.824v3.036c0,6.689-5.938,12.118-13.254,12.118h-565.99
					c-7.323,0-13.254-5.429-13.254-12.118v-3.036c0-6.689,5.931-12.118,13.254-12.118h565.99
					C805.969,664.706,811.907,670.135,811.907,676.824z"/>
			</g>
		</g>
	</g>
</g>
<path style="fill:#282F39;" d="M1474.687,921.552c0,0.809-0.854,1.613-2.524,2.404c-30.916,14.703-342.43,26.252-722.163,26.252
	c-379.727,0-691.248-11.549-722.164-26.252c-1.67-0.792-2.523-1.595-2.523-2.404c0-15.827,324.459-28.655,724.687-28.655
	C1150.235,892.896,1474.687,905.725,1474.687,921.552z"/>
<g>
	<g>
		<g>
			<path style="fill:#F4F1D0;" d="M725.274,654.138c0,8.57-5.027,16.04-12.472,19.947c-3.52,1.851-7.574,2.899-11.898,2.899
				c-0.926,0-1.833-0.047-2.73-0.14l-63.86,0.556l-0.228-13.385l-0.551-32.573h64.639c0.896-0.099,1.804-0.152,2.73-0.152
				c1.131,0,2.238,0.076,3.327,0.217c9.239,1.177,16.825,7.211,19.748,15.266C724.817,649.088,725.274,651.56,725.274,654.138z"/>
			<path style="fill:#D1CEB6;" d="M725.274,654.138c0,8.57-5.027,16.04-12.472,19.947c-3.52,1.851-7.574,2.899-11.898,2.899
				c-0.926,0-1.833-0.047-2.73-0.14l-63.86,0.556l-0.228-13.385l18.588-13.17c3.943,2.332,7.639,3.175,12.378,3.427
				c10.082,0.539,20.416,0.972,30.492,0.077c10.228-0.909,19.291-3.633,28.435-7.576
				C724.817,649.088,725.274,651.56,725.274,654.138z"/>
			<path style="fill:#D1CEB6;" d="M657.905,654.36c0,8.571-5.027,16.034-12.472,19.947c-3.521,1.845-7.575,2.9-11.898,2.9
				c-13.462,0-24.37-10.228-24.37-22.847c0-12.618,10.908-22.846,24.37-22.846c1.131,0,2.239,0.07,3.328,0.211
				C648.749,633.248,657.905,642.802,657.905,654.36z"/>
			<path style="fill:#F4F1D0;" d="M647.7,672.016c-0.697,0.839-1.458,1.606-2.267,2.291c-3.521,1.845-7.575,2.9-11.898,2.9
				c-13.462,0-24.37-10.228-24.37-22.847c0-12.618,10.908-22.846,24.37-22.846c1.131,0,2.239,0.07,3.328,0.211
				c3.726,1.828,1.922,8.172-2.138,6.567c-3.421-1.354-6.825-1.008-9.971,0.931c-9.115,5.607-15.823,20.703-6.262,28.915
				c6.214,5.343,17.773,6.304,23.59-0.204c2.97-3.328,3.966-8.588,2.613-12.836c-0.966-3.046-3.298-4.557-5.94-4.593
				c-2.724-0.03-5.571,0.897-7.34,2.994c-0.604,0.714-0.955,1.399-0.832,2.601c0.029,0,0.311,1.013,0.44,1.23
				c0.439,0.761,0.92,1.365,1.523,1.992c3.111,3.222-1.792,8.137-4.903,4.909c-4.821-4.991-5.501-12.244,0.199-16.901
				c4.757-3.884,12.554-5.354,17.92-1.763C654.285,651.267,653.769,664.7,647.7,672.016z"/>
		</g>
		<g>
			<path style="fill:#F4F1D0;" d="M773.399,611.971c0,8.57-5.027,16.039-12.473,19.946c-3.52,1.852-7.573,2.9-11.897,2.9
				c-0.926,0-1.834-0.047-2.73-0.141l-63.86,0.557l-0.228-13.386l-0.551-32.572h64.639c0.896-0.1,1.804-0.152,2.73-0.152
				c1.13,0,2.238,0.076,3.328,0.216c9.238,1.177,16.824,7.211,19.747,15.266C772.942,606.921,773.399,609.393,773.399,611.971z"/>
			<path style="fill:#D1CEB6;" d="M773.399,611.971c0,8.57-5.027,16.039-12.473,19.946c-3.52,1.852-7.573,2.9-11.897,2.9
				c-0.926,0-1.834-0.047-2.73-0.141l-63.86,0.557l-0.228-13.386l18.588-13.169c3.942,2.332,7.639,3.175,12.378,3.427
				c10.081,0.539,20.416,0.972,30.492,0.076c10.229-0.908,19.291-3.633,28.435-7.575
				C772.942,606.921,773.399,609.393,773.399,611.971z"/>
			<path style="fill:#D1CEB6;" d="M706.03,612.193c0,8.571-5.026,16.034-12.472,19.947c-3.521,1.846-7.574,2.9-11.897,2.9
				c-13.462,0-24.37-10.229-24.37-22.847c0-12.618,10.908-22.846,24.37-22.846c1.13,0,2.238,0.07,3.327,0.211
				C696.873,591.08,706.03,600.635,706.03,612.193z"/>
			<path style="fill:#F4F1D0;" d="M695.825,629.849c-0.697,0.838-1.458,1.606-2.267,2.291c-3.521,1.846-7.574,2.9-11.897,2.9
				c-13.462,0-24.37-10.229-24.37-22.847c0-12.618,10.908-22.846,24.37-22.846c1.13,0,2.238,0.07,3.327,0.211
				c3.726,1.828,1.922,8.172-2.138,6.567c-3.421-1.354-6.825-1.008-9.971,0.932c-9.115,5.606-15.823,20.703-6.262,28.915
				c6.215,5.343,17.773,6.304,23.59-0.205c2.97-3.327,3.967-8.588,2.613-12.835c-0.966-3.046-3.298-4.558-5.94-4.593
				c-2.725-0.029-5.571,0.897-7.34,2.994c-0.604,0.715-0.955,1.4-0.832,2.601c0.029,0,0.31,1.014,0.439,1.231
				c0.439,0.761,0.92,1.365,1.523,1.991c3.11,3.222-1.793,8.137-4.903,4.909c-4.822-4.99-5.501-12.243,0.199-16.901
				c4.757-3.884,12.554-5.354,17.92-1.763C702.41,609.1,701.894,622.533,695.825,629.849z"/>
		</g>
		<g>
			<path style="fill:#F4F1D0;" d="M815.489,654.138c0,8.57-5.027,16.04-12.472,19.947c-3.52,1.851-7.575,2.899-11.898,2.899
				c-0.925,0-1.833-0.047-2.729-0.14l-63.86,0.556l-0.228-13.385l-0.551-32.573h64.639c0.896-0.099,1.804-0.152,2.729-0.152
				c1.131,0,2.238,0.076,3.327,0.217c9.239,1.177,16.826,7.211,19.749,15.266C815.032,649.088,815.489,651.56,815.489,654.138z"/>
			<path style="fill:#D1CEB6;" d="M815.489,654.138c0,8.57-5.027,16.04-12.472,19.947c-3.52,1.851-7.575,2.899-11.898,2.899
				c-0.925,0-1.833-0.047-2.729-0.14l-63.86,0.556l-0.228-13.385l18.588-13.17c3.943,2.332,7.638,3.175,12.378,3.427
				c10.081,0.539,20.416,0.972,30.49,0.077c10.229-0.909,19.293-3.633,28.437-7.576C815.032,649.088,815.489,651.56,815.489,654.138
				z"/>
			<path style="fill:#D1CEB6;" d="M748.12,654.36c0,8.571-5.026,16.034-12.472,19.947c-3.52,1.845-7.574,2.9-11.897,2.9
				c-13.462,0-24.37-10.228-24.37-22.847c0-12.618,10.908-22.846,24.37-22.846c1.131,0,2.238,0.07,3.327,0.211
				C738.964,633.248,748.12,642.802,748.12,654.36z"/>
			<path style="fill:#F4F1D0;" d="M737.916,672.016c-0.697,0.839-1.459,1.606-2.268,2.291c-3.52,1.845-7.574,2.9-11.897,2.9
				c-13.462,0-24.37-10.228-24.37-22.847c0-12.618,10.908-22.846,24.37-22.846c1.131,0,2.238,0.07,3.327,0.211
				c3.726,1.828,1.921,8.172-2.138,6.567c-3.421-1.354-6.825-1.008-9.971,0.931c-9.115,5.607-15.823,20.703-6.262,28.915
				c6.216,5.343,17.773,6.304,23.591-0.204c2.97-3.328,3.966-8.588,2.612-12.836c-0.966-3.046-3.298-4.557-5.94-4.593
				c-2.725-0.03-5.571,0.897-7.341,2.994c-0.603,0.714-0.954,1.399-0.831,2.601c0.029,0,0.311,1.013,0.439,1.23
				c0.439,0.761,0.92,1.365,1.523,1.992c3.111,3.222-1.792,8.137-4.902,4.909c-4.822-4.991-5.501-12.244,0.199-16.901
				c4.757-3.884,12.554-5.354,17.921-1.763C744.5,651.267,743.985,664.7,737.916,672.016z"/>
		</g>
	</g>
	<g>
		<g>
			<g>
				<polygon style="fill:#3F0C16;" points="1353.118,859.86 1344.058,930.271 1332.211,930.271 1327.061,878.264 1325.243,859.86 
									"/>
				<polygon style="fill:#701A27;" points="1339.877,878.264 1333.188,930.271 1332.211,930.271 1327.061,878.264 				"/>
			</g>
			<g>
				<polygon style="fill:#3F0C16;" points="706.408,859.86 697.348,930.271 685.502,930.271 680.352,878.264 678.533,859.86 				"/>
				<polygon style="fill:#701A27;" points="693.168,878.264 686.477,930.271 685.502,930.271 680.352,878.264 				"/>
			</g>
			<g>
				<polygon style="fill:#3F0C16;" points="286.882,859.86 277.823,930.271 265.976,930.271 260.826,878.264 259.008,859.86 				"/>
				<polygon style="fill:#701A27;" points="273.642,878.264 266.951,930.271 265.976,930.271 260.826,878.264 				"/>
			</g>
			<g>
				<polygon style="fill:#3F0C16;" points="932.198,859.86 923.139,930.271 911.293,930.271 906.143,878.264 904.323,859.86 				"/>
				<polygon style="fill:#701A27;" points="918.959,878.264 912.268,930.271 911.293,930.271 906.143,878.264 				"/>
			</g>
		</g>
		<g>
			<path style="fill:#591320;" d="M927.36,522.948c-8.203,0.069-9.576,239.838-1.372,239.77h408.771c0,0,0,0,0.037,0
				c3.23,0,14.266-97.953,20.948-172.547h-0.038c1.562-31.009,5.368-65.752,3.589-84.446
				C1358.714,497.799,926.781,515.057,927.36,522.948z"/>
			<polygon style="fill:#421F37;" points="1384.931,476.47 1350.587,762.718 1363.003,762.718 1397.527,477.976 1386.528,476.326 
							"/>
			<path style="fill:#8E1E34;" d="M911.964,505.724l-25.17,256.482l35.965,0.512c-8.532,0.212,1.97-234.1,10.5-234.346
				c-0.653-10.241,415.624-25.059,416.312-14.818c5.673,8.612,10.275,30.88,6.174,76.616
				c-6.682,74.595-17.718,172.547-20.948,172.547h15.791l34.344-286.248L911.964,505.724z"/>
			<path style="fill:#591320;" d="M750.177,762.718l-10.618,108.533h276.621h13.247h301.233h13.249h20.911l-0.746-108.533l0,0
				h-11.107h-14.122c-0.034,0-0.034,0-0.034,0H973.185h-2.889H952.86H750.177z"/>
			<polygon style="fill:#8E1E34;" points="250.701,762.718 247.976,871.251 271.634,871.251 289.582,871.251 718.181,871.251 
				736.087,871.251 753.818,871.251 768.169,762.718 			"/>
		</g>
		<g>
			<path style="fill:#EDEDED;" d="M272.268,681.815c-10.121,25.261-13.735,52.434-13.012,80.903h511.987
				c0.382-32.596-3.021-62.692-12.765-88.693C601.786,673.023,439.26,675.938,272.268,681.815z"/>
			<path style="fill:#BCC7C9;" d="M896.537,673.023c-52.38-0.172-104.479,0.163-156.267,1.001
				c7.14,26.001,9.634,56.098,9.354,88.693h376.51c3.087-29.258-0.063-59.648-9.104-86.61c-22.136-0.586-44.244-1.091-66.285-1.465
				C999.081,673.69,947.669,673.104,896.537,673.023z"/>
			<path style="fill:#447B82;" d="M1125.945,762.718h103.027c0.218-29.136-5.845-58.354-17.569-84.191
				c-17.39-0.546-34.78-1.002-52.095-1.425c-14.701-0.376-29.331-0.709-43.962-0.994
				C1125.872,703.07,1129.539,733.46,1125.945,762.718z"/>
			<path style="fill:#BCC7C9;" d="M1301.978,681.359c-30.278-1.083-60.444-2.044-90.576-2.832
				c11.725,25.837,17.787,55.055,17.569,84.191h92.572c1.815-28.427,0.437-55.601-5.588-80.903
				C1311.307,681.652,1306.624,681.482,1301.978,681.359z"/>
			<path style="fill:#869496;" d="M1045.099,657.596c8.204-19.09,18.26-38.009,29.986-53.598
				c-2.978-7.213-7.406-13.628-12.923-18.505c1.742,27.67-15.065,61.227-27.229,77.566c-56.487,6.129-116.205,8.832-172.365-2.5
				c-1.524,4.086-2.831,8.255-3.956,12.464c59.536,0.081,119.399,0.667,179.553,1.62
				C1040.307,669.018,1042.593,663.311,1045.099,657.596z"/>
			<path style="fill:#EDEDED;" d="M914.263,584.492c-22.689,19.213-41.094,45.971-51.695,76.067
				c56.16,11.333,115.879,8.629,172.365,2.5c12.163-16.339,28.971-49.895,27.229-77.566
				C1013.115,578.737,963.417,578.404,914.263,584.492z"/>
			<path style="fill:#EDEDED;" d="M1075.085,603.998c-11.726,15.589-25.967,43.142-34.172,62.232
				c37.065,10.461,79.914,7.501,118.431,8.747c15.103,0.504,30.168,0.293,45.125-0.538c23.487-1.335,47.157-5.836,69.374-14.67
				c12.018-20.262,20.112-45.767,22.288-70.149c-63.673-26.513-133.957-30.348-199.046-8.759
				C1089.207,587.032,1081.837,594.954,1075.085,603.998z"/>
			<path style="fill:#869496;" d="M1211.403,678.527c30.132,0.788,60.297,1.75,90.576,2.832c9.401-28.974,8.459-62.228-2.687-90.452
				c-1.053-0.456-2.107-0.872-3.16-1.287c-2.176,24.382-10.271,49.887-22.288,70.149c-22.217,8.833-45.887,13.335-69.374,14.67
				c-14.957,0.83-30.021,1.041-45.125,0.538l-0.037,2.125C1176.623,677.525,1194.013,677.981,1211.403,678.527z"/>
			<path style="fill:#FFFFFF;" d="M1211.403,678.527l-8.825-11.179c-112.797-5.657-230.892-6.642-353.141-3.964l-8.805,9.599
				l274.714,3.126L1211.403,678.527z"/>
		</g>
	</g>
</g>
<g>
	<g>
		<g>
			<g>
				<polygon style="fill:#3F0C16;" points="1274.44,886.409 1266.983,930.271 1257.235,930.271 1252.997,897.873 1251.5,886.409 
									"/>
				<polygon style="fill:#701A27;" points="1263.544,897.873 1258.038,930.271 1257.235,930.271 1252.997,897.873 				"/>
			</g>
			<g>
				<polygon style="fill:#3F0C16;" points="1130.603,886.409 1123.148,930.271 1113.4,930.271 1109.162,897.873 1107.665,886.409 
									"/>
				<polygon style="fill:#701A27;" points="1119.708,897.873 1114.202,930.271 1113.4,930.271 1109.162,897.873 				"/>
			</g>
		</g>
		<g>
			<g>
				<polygon style="fill:#3F0C16;" points="1351.902,886.409 1344.446,930.271 1334.696,930.271 1330.459,897.873 1328.963,886.409 
									"/>
				<polygon style="fill:#701A27;" points="1341.005,897.873 1335.499,930.271 1334.696,930.271 1330.459,897.873 				"/>
			</g>
			<g>
				<polygon style="fill:#3F0C16;" points="1206.657,886.409 1199.202,930.271 1189.452,930.271 1185.215,897.873 1183.718,886.409 
									"/>
				<polygon style="fill:#701A27;" points="1195.761,897.873 1190.256,930.271 1189.452,930.271 1185.215,897.873 				"/>
			</g>
		</g>
		<polygon style="fill:#8E1E34;" points="1374.451,658.585 1374.404,659.993 1366.532,892.966 1087.425,892.966 1088.927,658.585 		
			"/>
		<polygon style="fill:#591320;" points="1374.404,659.993 1366.532,892.966 1277.568,892.966 1279.061,659.993 		"/>
		<rect x="1103.93" y="676.277" style="fill:#591320;" width="161.48" height="64.226"/>
		<rect x="1103.93" y="744.62" style="fill:#591320;" width="161.48" height="64.226"/>
		<rect x="1103.93" y="812.963" style="fill:#591320;" width="161.48" height="64.226"/>
		<g>
			<g>
				<path style="fill:#FFA41F;" d="M1184.827,727.638c0,3.479-2.819,6.298-6.297,6.298c-3.477,0-6.297-2.82-6.297-6.298
					c0-3.477,2.82-6.297,6.297-6.297C1182.008,721.341,1184.827,724.161,1184.827,727.638z"/>
				<path style="fill:#FFC06C;" d="M1180.383,725.787c0,1.739-1.41,3.149-3.149,3.149c-1.739,0-3.148-1.41-3.148-3.149
					s1.409-3.148,3.148-3.148C1178.973,722.638,1180.383,724.048,1180.383,725.787z"/>
			</g>
			<g>
				<path style="fill:#FFA41F;" d="M1184.827,793.275c0,3.476-2.819,6.296-6.297,6.296c-3.477,0-6.297-2.82-6.297-6.296
					c0-3.48,2.82-6.298,6.297-6.298C1182.008,786.977,1184.827,789.795,1184.827,793.275z"/>
				<path style="fill:#FFC06C;" d="M1180.383,791.421c0,1.74-1.41,3.15-3.149,3.15c-1.739,0-3.148-1.41-3.148-3.15
					c0-1.739,1.409-3.147,3.148-3.147C1178.973,788.274,1180.383,789.682,1180.383,791.421z"/>
			</g>
			<g>
				<path style="fill:#FFA41F;" d="M1184.827,861.502c0,3.479-2.819,6.298-6.297,6.298c-3.477,0-6.297-2.82-6.297-6.298
					c0-3.477,2.82-6.297,6.297-6.297C1182.008,855.205,1184.827,858.024,1184.827,861.502z"/>
				<path style="fill:#FFC06C;" d="M1180.383,859.65c0,1.739-1.41,3.15-3.149,3.15c-1.739,0-3.148-1.411-3.148-3.15
					c0-1.739,1.409-3.148,3.148-3.148C1178.973,856.502,1180.383,857.911,1180.383,859.65z"/>
			</g>
		</g>
	</g>
	<g>
		<polygon style="fill:#352420;" points="1247.817,578.506 1236.695,658.751 1260.402,658.751 1252.585,577.712 		"/>
		<g>
			<polygon style="fill:#FFA45A;" points="1279.681,592.98 1217.416,592.98 1219.699,578.82 1228.34,525.254 1270.396,525.254 			
				"/>
			<path style="fill:#FFB680;" d="M1264.935,530.989c0,30.616-13.451,55.437-30.039,55.437c-5.544,0-10.74-2.772-15.196-7.606
				l8.641-53.566h36.436C1264.879,527.141,1264.935,529.053,1264.935,530.989z"/>
		</g>
	</g>
</g>
</svg>
