<?xml version="1.0" encoding="utf-8"?>
<!-- Generator: Adobe Illustrator 27.5.0, SVG Export Plug-In . SVG Version: 6.00 Build 0)  -->
<svg version="1.1" xmlns="http://www.w3.org/2000/svg" xmlns:xlink="http://www.w3.org/1999/xlink" x="0px" y="0px"
	 viewBox="0 0 800 800" style="enable-background:new 0 0 800 800;" xml:space="preserve">
<g id="Background">
	<rect style="fill:#A19180;" width="800" height="800"/>
	<g>
		<polygon style="fill:#BD8E58;" points="306.645,444.098 23.359,666.976 23.643,669.681 310.914,669.681 504.969,447.314 
			505.344,444.544 		"/>
		<g>
			<polygon style="fill:#F5B264;" points="23.359,666.976 306.362,441.392 505.344,444.544 310.631,666.976 			"/>
			<polygon style="fill:#F5D8B5;" points="74.854,649.347 310.809,459.02 467.878,461.602 299.998,649.347 			"/>
		</g>
	</g>
	
		<rect y="534.831" style="opacity:0.05;stroke:#000000;stroke-width:1.3592;stroke-linecap:round;stroke-linejoin:round;stroke-miterlimit:10;" width="800" height="265.169"/>
	
		<rect y="636.426" style="opacity:0.05;stroke:#000000;stroke-width:1.3592;stroke-linecap:round;stroke-linejoin:round;stroke-miterlimit:10;" width="800" height="163.574"/>
	
		<rect y="711.642" style="opacity:0.05;stroke:#000000;stroke-width:1.3592;stroke-linecap:round;stroke-linejoin:round;stroke-miterlimit:10;" width="800" height="88.358"/>
</g>
<g id="Objects">
	<g>
		<polygon style="fill:#CBE6CD;" points="280.789,0 290.942,405.445 0,607.184 0.5,0 		"/>
		<polyline style="fill:#B1C9B3;" points="0,574.687 290.942,377.324 290.942,405.821 0,607.184 		"/>
	</g>
	<path style="opacity:0.05;stroke:#000000;stroke-linecap:round;stroke-linejoin:round;stroke-miterlimit:10;" d="M322.177,254.599
		c-4.54-11.049-10.761-23.049-19.079-31.74c-5.802-6.062-13.541-10.304-21.872-6.833c-8.798,3.666-13.784,14.438-16.475,22.89
		c-3.613,11.348-2.053,23.855-1.898,35.559c0.19,14.431-1.76,27.529-10.589,39.304c-7.682,10.245-18.295,17.662-28.925,24.538
		c-24.238,15.678-46.695,34.284-73.55,45.423c-11.423,4.738-22.887,9.427-33.552,15.743c-10.654,6.31-18.377,14.749-24.759,25.27
		c-6.768,11.156-11.593,23.446-16.192,35.613c-5.493,14.533-6.1,30.826-7.047,46.163c-0.818,13.231-1.456,26.389-1.49,39.649
		c-0.016,6.367,0.393,12.229,2.005,18.409c1.476,5.657,3.28,11.13,3.829,16.983c0.027,0.29,0.346,0.559,0.76,0.756
		c0.302,0.563,2.08,1.31,2.717,0.881c12.188-8.211,22.728-18.282,34.423-27.086c11.149-8.393,25.113-13.196,37.956-18.347
		c22.813-9.147,47.221-13.604,70.322-21.948c10.902-3.938,21.487-8.85,31.057-15.431c10.04-6.903,18.462-16.372,25.426-26.301
		c14.861-21.188,23.342-45.652,31.152-70.104c3.951-12.366,7.796-24.766,12.285-36.951c4.563-12.39,9.351-24.241,11.714-37.314
		C334.948,304.544,331.884,278.222,322.177,254.599z"/>
	
		<path style="opacity:0.05;stroke:#000000;stroke-width:0.6347;stroke-linecap:round;stroke-linejoin:round;stroke-miterlimit:10;" d="
		M156.519,599.033c0,9.318-18.752,16.872-41.883,16.872c-23.131,0-41.883-7.554-41.883-16.872c0-9.317,18.751-16.871,41.883-16.871
		C137.767,582.162,156.519,589.716,156.519,599.033z"/>
	<g>
		<path style="fill:#BDD6BF;" d="M290.942,405.096L280.789,0H800v405C800,405,593,389,290.942,405.096z"/>
		<path style="fill:#90AD91;" d="M290.942,405.445C600.481,394.5,800,405.35,800,405.35V385.5c0,0-203.047-4.997-509.058,0.096
			V405.445z"/>
		
			<path style="opacity:0.03;stroke:#000000;stroke-width:1.3592;stroke-linecap:round;stroke-linejoin:round;stroke-miterlimit:10;" d="
			M288.015,288.28l2.928,116.816C593,389,800,405,800,405V288.28H288.015z"/>
	</g>
	<g>
		
			<ellipse transform="matrix(0.9198 -0.3925 0.3925 0.9198 5.7798 211.7756)" style="fill:#FFFFFF;" cx="520.8" cy="91.753" rx="41.273" ry="41.272"/>
		<path style="opacity:0.1;fill:#FFFFFF;" d="M580.383-0.464H461.217c-30.208,19.559-50.201,53.552-50.201,92.217
			c0,60.63,49.154,109.783,109.784,109.783s109.784-49.153,109.784-109.783C630.584,53.088,610.591,19.094,580.383-0.464z"/>
		
			<ellipse transform="matrix(0.9996 -0.0284 0.0284 0.9996 -2.3953 14.8246)" style="opacity:0.1;fill:#FFFFFF;" cx="520.8" cy="91.753" rx="68.298" ry="68.297"/>
		
			<ellipse transform="matrix(0.2246 -0.9745 0.9745 0.2246 314.4374 578.6467)" style="opacity:0.2;fill:#FFFFFF;" cx="520.8" cy="91.753" rx="53.877" ry="53.877"/>
		<ellipse style="fill:#CCCCCC;" cx="520.8" cy="54.644" rx="15.456" ry="10.682"/>
		<path style="fill:#A19180;" d="M515.289,0.186v51.668c0,2.761,2.238,5,5,5h1.021c2.762,0,5-2.239,5-5V-0.186
			C522.636-0.097,518.962,0.05,515.289,0.186z"/>
	</g>
	<g>
		
			<path style="opacity:0.05;stroke:#000000;stroke-width:0.9769;stroke-linecap:round;stroke-linejoin:round;stroke-miterlimit:10;" d="
			M226.768,33.323c-5.442-0.404-9.935,3.085-10.06,7.813l-8.523,2.919c-0.816-0.504-1.691-0.844-2.611-0.959
			c-2.508-0.314-4.834,0.957-6.387,3.485c-0.107,0.175-0.081,0.391,0.046,0.539l-2.077,0.712c-0.705-0.368-1.45-0.617-2.225-0.71
			c-2.545-0.312-4.908,0.98-6.486,3.532c-0.036,0.058-0.055,0.12-0.064,0.183l-0.466,0.159c-0.802-0.46-1.659-0.768-2.555-0.874
			c-2.579-0.305-4.975,0.998-6.575,3.57c-0.085,0.138-0.083,0.3-0.019,0.437l-2.267,0.776c-0.679-0.324-1.39-0.548-2.13-0.632
			c-2.619-0.291-5.055,1.023-6.679,3.62c-0.007,0.011-0.007,0.022-0.012,0.034l-2.907,0.995c-0.85-0.485-1.76-0.809-2.713-0.913
			c-2.662-0.29-5.143,1.046-6.796,3.669c-0.1,0.158-0.09,0.352,0.005,0.5l-2.322,0.795c-0.727-0.346-1.491-0.581-2.286-0.665
			c-2.71-0.287-5.226,1.072-6.907,3.72c-0.021,0.034-0.029,0.071-0.042,0.108l-11.902,4.076c-0.984-0.601-2.055-0.992-3.182-1.103
			c-2.79-0.28-5.388,1.115-7.121,3.812c-0.139,0.216-0.077,0.503,0.139,0.642c0.058,0.037,0.121,0.058,0.185,0.066l-3.709,1.271
			c-0.921-0.504-1.909-0.836-2.945-0.933c-2.849-0.265-5.488,1.145-7.255,3.871c-0.113,0.173-0.089,0.391,0.035,0.542l-2.526,0.865
			c-0.793-0.361-1.628-0.6-2.497-0.678c-2.874-0.256-5.546,1.159-7.343,3.881c-1.121-0.719-2.361-1.177-3.669-1.29
			c-2.933-0.25-5.665,1.192-7.489,3.969c-0.141,0.215-0.081,0.503,0.133,0.644c0.214,0.141,0.503,0.081,0.644-0.133
			c1.631-2.483,4.048-3.776,6.632-3.554c0.977,0.085,1.908,0.393,2.775,0.865l-11.912,4.08c-1.067-0.623-2.231-1.021-3.455-1.122
			c-2.982-0.254-5.762,1.221-7.619,4.029c-0.142,0.214-0.083,0.502,0.131,0.644c0.215,0.144,0.503,0.083,0.644-0.131
			c1.664-2.515,4.124-3.826,6.768-3.615c0.806,0.066,1.582,0.283,2.319,0.611l-23.785,8.146c-2.24-2.36-5.5-3.99-9.171-4.262
			c-6.929-0.514-12.646,3.969-12.706,10.018c-0.061,6.049,5.559,11.285,12.489,11.692c6.746,0.397,12.223-3.94,12.465-9.731
			l9.109-3.174c0.574,2.774,1.906,5.149,3.672,6.809l-1.453,0.494c-0.196,0.067-0.324,0.255-0.314,0.462l9.513,199.23l-2.483,64.065
			c-0.005,0.129,0.043,0.253,0.134,0.345c0.087,0.088,0.207,0.138,0.33,0.138c0.004,0,0.009,0,0.013,0
			c29.248-0.808,39.875-16.988,39.979-17.151c0.057-0.091,0.082-0.199,0.069-0.306l-0.081-0.637
			c-0.023-0.183-0.15-0.335-0.327-0.389c-0.068-0.021-0.132-0.043-0.2-0.063c-1.157-9.275-2.946-17.925-4.988-25.688l88.456-40.92
			c0.453,7.453,1.523,15.757,3.414,24.994c0.036,0.173,0.165,0.311,0.335,0.356c0.274,0.073,0.571,0.11,0.881,0.11
			c1.877,0,4.452-1.379,7.652-4.097c0.1-0.085,0.161-0.26,0.166-0.39c0.004-0.128,0.012-0.255,0.017-0.383
			c4.101-3.587,7.776-8.059,7.776-8.059l-1.29-31.056c0.122-0.647,0.256-1.293,0.372-1.941c0.006-0.033,0.009-0.067,0.007-0.101
			l-1.433-34.491l-0.026-4.637c-0.001-0.043-0.006-0.085-0.018-0.125c-0.146-0.509-0.306-1.016-0.457-1.523
			c-0.284-40.407-1.555-117.868-2.718-168.638c-1.359,0.445-2.713,0.915-4.069,1.373c0.259-1.021,0.413-2.107,0.424-3.231
			c0.015-1.496-0.201-2.946-0.6-4.289l7.266-2.532c1.762,1.51,4.104,2.513,6.683,2.664c5.439,0.32,9.847-3.241,9.895-7.949
			C236.536,37.868,232.205,33.727,226.768,33.323z M205.458,44.019c0.53,0.066,1.044,0.222,1.54,0.443l-6.836,2.341
			C201.508,44.783,203.416,43.763,205.458,44.019z M201.8,58.77c-0.01,0.949-0.129,1.866-0.328,2.738
			c-1.361-1.445-2.392-3.521-2.829-5.928c-0.019-0.105-0.077-0.189-0.15-0.255l2.639-0.92C201.57,55.756,201.815,57.235,201.8,58.77
			z M135.752,77.186c0.37,1.259,0.571,2.616,0.557,4.018c-0.016,1.604-0.307,3.12-0.832,4.464c-3.735,1.389-7.212,2.67-10.525,3.879
			c-0.427-0.31-0.833-0.667-1.214-1.067c0.131-0.752,0.211-1.525,0.219-2.322c0.016-1.617-0.239-3.179-0.704-4.617L135.752,77.186z
			 M153.739,70.919c-0.033,0.08-0.051,0.166-0.034,0.258c0.481,2.55,1.599,4.764,3.088,6.362c-1.194,0.4-2.357,0.784-3.501,1.156
			c-0.206,0.067-0.339,0.268-0.319,0.484c0.006,0.066,0.14,1.497,0.416,4.007c-0.928,0.447-1.926,0.633-2.953,0.541
			c-3.458-0.307-6.481-3.714-7.353-8.286c-0.048-0.252-0.291-0.416-0.544-0.37c-0.252,0.048-0.417,0.292-0.37,0.543
			c0.949,4.978,4.314,8.695,8.184,9.038c0.2,0.018,0.399,0.027,0.596,0.027c0.882,0,1.736-0.18,2.547-0.524
			c0.206,1.835,0.477,4.135,0.818,6.834l-14.493,4.753c-0.072-7.344-0.249-11.6-0.249-11.6c-1.012,0.378-1.998,0.746-2.973,1.109
			c0.397-1.252,0.623-2.611,0.637-4.036c0.015-1.511-0.206-2.974-0.613-4.332L153.739,70.919z M168.718,65.7
			c0.401,1.303,0.623,2.717,0.608,4.181c-0.007,0.744-0.082,1.471-0.207,2.175c-0.965-1.349-1.689-3.036-2.042-4.928
			c-0.047-0.252-0.289-0.421-0.542-0.371c-0.252,0.047-0.419,0.29-0.371,0.542c0.435,2.327,1.4,4.372,2.691,5.921
			c-0.068,0.242-0.15,0.474-0.232,0.707c-0.098,0.035-0.197,0.069-0.295,0.104c-0.035-0.099-0.091-0.188-0.182-0.244
			c-0.12-0.074-0.269-0.09-0.401-0.043c-3.295,1.174-6.251,2.204-9.018,3.144c0.166-0.841,0.26-1.719,0.269-2.624
			c0.018-1.724-0.277-3.383-0.802-4.896L168.718,65.7z M191.744,57.676c0.396,1.296,0.616,2.703,0.601,4.16
			c-0.012,1.257-0.207,2.466-0.545,3.576c-0.326,0.121-0.652,0.242-0.977,0.362c-1.419-1.455-2.493-3.577-2.945-6.042
			c-0.047-0.252-0.288-0.421-0.541-0.373c-0.252,0.046-0.419,0.288-0.373,0.541c0.455,2.484,1.515,4.648,2.926,6.22
			c-2.599,0.963-5.206,1.928-7.82,2.896c0.211-0.936,0.337-1.921,0.347-2.947c0.018-1.713-0.273-3.364-0.791-4.868L191.744,57.676z
			 M123.503,89.552c0.138,0.13,0.282,0.249,0.426,0.369c-0.197,0.072-0.391,0.142-0.587,0.214
			C123.401,89.943,123.452,89.748,123.503,89.552z M209.297,240.952c-0.015,0.03-0.029,0.063-0.044,0.093
			c-0.002-0.043-0.003-0.087-0.005-0.13C209.265,240.927,209.28,240.94,209.297,240.952z M192.875,65.013
			c0.244-0.999,0.389-2.059,0.399-3.167c0.016-1.564-0.224-3.078-0.659-4.474l5.117-1.783c-0.008,0.051-0.012,0.103-0.003,0.157
			c0.467,2.571,1.579,4.797,3.057,6.373C198.152,63.072,195.516,64.038,192.875,65.013z M181.487,66.06
			c-0.009,0.975-0.136,1.917-0.345,2.814c-1.418-1.461-2.491-3.575-2.945-6.031c-0.031-0.166-0.149-0.288-0.297-0.343l2.857-0.995
			C181.235,62.908,181.503,64.454,181.487,66.06z M180.545,69.581c-3.421,1.265-6.855,2.527-10.317,3.773
			c-0.122-0.118-0.238-0.243-0.355-0.37c0.232-0.981,0.371-2.015,0.382-3.094c0.016-1.572-0.226-3.092-0.665-4.494l7.754-2.702
			c-0.055,0.093-0.083,0.204-0.061,0.318C177.776,65.683,178.966,67.984,180.545,69.581z M158.067,74.252
			c-0.01,1.016-0.141,1.988-0.359,2.908c-1.488-1.481-2.615-3.641-3.089-6.157c-0.026-0.14-0.116-0.247-0.231-0.311l2.937-1.023
			C157.81,71.082,158.083,72.636,158.067,74.252z M123.028,86.149c-0.005,0.467-0.039,0.924-0.089,1.375
			c-1.017-1.377-1.781-3.096-2.155-5.026c-0.006-0.031-0.023-0.056-0.035-0.084l1.631-0.568
			C122.808,83.184,123.043,84.64,123.028,86.149z M119.881,82.716c0.469,2.378,1.493,4.461,2.861,6.037
			c-0.13,0.621-0.304,1.22-0.521,1.789c-3.753,1.362-7.322,2.64-10.854,3.89c0.313-1.133,0.49-2.34,0.503-3.595
			c0.018-1.775-0.295-3.48-0.852-5.032L119.881,82.716z M110.941,90.827c-0.011,1.073-0.156,2.105-0.401,3.081
			c-1.626-1.517-2.858-3.762-3.374-6.391c-0.025-0.128-0.102-0.233-0.204-0.3l3.186-1.11
			C110.666,87.56,110.958,89.16,110.941,90.827z M110.207,94.842c-3.352,1.184-6.69,2.348-10.134,3.539
			c0.583-1.481,0.908-3.137,0.925-4.875c0.014-1.398-0.182-2.751-0.533-4.024l5.814-2.026c-0.026,0.076-0.041,0.157-0.024,0.242
			C106.839,90.671,108.292,93.191,110.207,94.842z M100.07,93.496c-0.019,1.932-0.446,3.744-1.198,5.3
			c-0.131,0.045-0.265,0.091-0.396,0.137c-1.787-1.523-3.15-3.876-3.704-6.665c-0.05-0.252-0.295-0.418-0.546-0.365
			c-0.252,0.05-0.415,0.295-0.365,0.546c0.553,2.786,1.87,5.172,3.616,6.828c-2.282,0.786-4.627,1.59-7.065,2.423
			c-0.03-0.086-0.075-0.166-0.15-0.223c-0.123-0.094-0.284-0.121-0.431-0.07c-0.613,0.21-1.246,0.425-1.871,0.638
			c0.333-1.169,0.519-2.418,0.533-3.713c0.015-1.555-0.221-3.058-0.653-4.452l11.753-4.095
			C99.907,90.96,100.083,92.206,100.07,93.496z M87.562,98.323c-0.011,1.102-0.163,2.163-0.422,3.167
			c-1.624-1.47-2.864-3.631-3.439-6.167l3.265-1.138C87.361,95.48,87.576,96.877,87.562,98.323z M194.819,48.045
			c0.348,0.042,0.687,0.13,1.021,0.238l-6.057,2.074C191.126,48.651,192.922,47.814,194.819,48.045z M185.252,51.046
			c0.494,0.058,0.975,0.184,1.44,0.371l-6.813,2.333C181.268,51.793,183.199,50.806,185.252,51.046z M174.265,55.199
			c0.295,0.033,0.584,0.097,0.869,0.176l-5.928,2.031C170.58,55.786,172.373,54.983,174.265,55.199z M161.957,58.934
			c0.546,0.06,1.076,0.203,1.587,0.41l-7.25,2.483C157.742,59.755,159.778,58.693,161.957,58.934z M150.562,63.232
			c0.346,0.037,0.684,0.114,1.017,0.209l-6.385,2.187C146.634,63.889,148.542,63.023,150.562,63.232z M122.287,73.424
			c1.539-2.394,3.82-3.626,6.249-3.39c0.723,0.071,1.419,0.279,2.081,0.586l-8.403,2.878
			C122.24,73.475,122.268,73.455,122.287,73.424z M115.089,74.893c0.614,0.058,1.209,0.212,1.781,0.437l-7.959,2.726
			C110.479,75.827,112.711,74.67,115.089,74.893z M102.851,79.495c0.404,0.037,0.797,0.122,1.185,0.23l-7.07,2.422
			C98.53,80.254,100.629,79.298,102.851,79.495z M70.788,99.887c-0.004-0.021-0.018-0.037-0.024-0.056l12.055-4.201
			c0.664,2.832,2.117,5.221,4.008,6.802c-3.348,1.141-6.885,2.344-10.705,3.642l-1.553,0.528
			C72.745,105.059,71.355,102.692,70.788,99.887z M212.316,54.673c-0.012,1.271-0.211,2.486-0.555,3.598
			c-3.114,1.062-6.226,2.146-9.334,3.262c0.184-0.877,0.292-1.797,0.302-2.754c0.016-1.642-0.251-3.226-0.727-4.677l9.772-3.405
			C212.134,51.94,212.331,53.286,212.316,54.673z"/>
		<g>
			<g>
				<path style="fill:#7FCEF5;" d="M211.041,68.596l-97.865,32.067c0.345,64.727-1.125,146.622-1.069,219.066l106.333-49.19
					C215.54,199.458,213.951,132.791,211.041,68.596z"/>
				<path style="fill:#FFFFFF;" d="M244.096,30.581c-0.047,4.708-4.456,8.268-9.894,7.949c-5.491-0.323-9.943-4.472-9.895-9.265
					c0.048-4.793,4.578-8.345,10.068-7.938C239.813,21.731,244.144,25.873,244.096,30.581z"/>
				<path style="fill:#E6E6E6;" d="M232.308,30.345c0.805,1.872,0.006,3.875-1.788,4.476L54.622,96.11
					c-2.316,0.78-5.05-0.278-6.102-2.368l0,0c-1.053-2.093-0.013-4.418,2.316-5.188l176.751-60.534
					C229.391,27.428,231.503,28.47,232.308,30.345L232.308,30.345z"/>
				<path style="fill:#FFFFFF;" d="M68.412,91.013c-0.06,5.942-5.623,10.436-12.486,10.032c-6.931-0.407-12.55-5.644-12.489-11.692
					c0.061-6.049,5.777-10.532,12.707-10.018C63.005,79.844,68.471,85.07,68.412,91.013z"/>
				
					<path style="fill:none;stroke:#000000;stroke-width:0.9289;stroke-linecap:round;stroke-linejoin:round;stroke-miterlimit:10;" d="
					M79.625,78.198c1.686-2.548,4.293-4.061,7.193-3.822c4.944,0.408,8.877,5.76,8.815,11.956
					c-0.062,6.197-4.097,10.959-9.042,10.632c-4.166-0.275-7.657-4.069-8.651-8.981"/>
				
					<path style="fill:none;stroke:#000000;stroke-width:0.9289;stroke-linecap:round;stroke-linejoin:round;stroke-miterlimit:10;" d="
					M92.428,73.39c1.655-2.52,4.215-4.009,7.061-3.762c4.854,0.42,8.715,5.737,8.653,11.878c-0.062,6.14-4.023,10.843-8.878,10.502
					c-4.088-0.287-7.515-4.058-8.49-8.928"/>
				
					<path style="fill:none;stroke:#000000;stroke-width:0.9289;stroke-linecap:round;stroke-linejoin:round;stroke-miterlimit:10;" d="
					M103.553,70.756c1.628-2.496,4.147-3.97,6.947-3.719c4.777,0.426,8.575,5.709,8.514,11.799c-0.061,6.091-3.96,10.748-8.736,10.4
					c-4.023-0.293-7.394-4.04-8.353-8.873"/>
				
					<path style="fill:none;stroke:#000000;stroke-width:0.9289;stroke-linecap:round;stroke-linejoin:round;stroke-miterlimit:10;" d="
					M115.918,66.097c1.6-2.467,4.073-3.919,6.823-3.662c4.69,0.439,8.42,5.686,8.36,11.723c-0.061,6.035-3.89,10.638-8.581,10.276
					c-3.951-0.305-7.26-4.031-8.201-8.823"/>
				
					<path style="fill:none;stroke:#000000;stroke-width:0.9289;stroke-linecap:round;stroke-linejoin:round;stroke-miterlimit:10;" d="
					M129.504,61.178c1.567-2.438,3.991-3.865,6.686-3.601c4.597,0.452,8.252,5.661,8.192,11.637
					c-0.06,5.976-3.813,10.518-8.411,10.142c-3.872-0.317-7.114-4.017-8.035-8.765"/>
				
					<path style="fill:none;stroke:#000000;stroke-width:0.9289;stroke-linecap:round;stroke-linejoin:round;stroke-miterlimit:10;" d="
					M151.753,54.282c1.516-2.389,3.859-3.781,6.465-3.507c4.445,0.468,7.98,5.608,7.921,11.487
					c-0.059,5.877-3.69,10.325-8.136,9.931c-3.744-0.332-6.878-3.988-7.769-8.662"/>
				
					<path style="fill:none;stroke:#000000;stroke-width:0.9289;stroke-linecap:round;stroke-linejoin:round;stroke-miterlimit:10;" d="
					M163.262,49.932c1.49-2.363,3.793-3.735,6.353-3.454c4.368,0.477,7.841,5.586,7.783,11.412
					c-0.058,5.827-3.627,10.224-7.996,9.818c-3.679-0.342-6.757-3.977-7.632-8.613"/>
				
					<path style="fill:none;stroke:#000000;stroke-width:0.9289;stroke-linecap:round;stroke-linejoin:round;stroke-miterlimit:10;" d="
					M175.692,46.146c1.462-2.337,3.721-3.689,6.233-3.404c4.286,0.485,7.692,5.557,7.634,11.328
					c-0.057,5.771-3.559,10.116-7.845,9.701c-3.609-0.351-6.629-3.96-7.486-8.553"/>
				
					<path style="fill:none;stroke:#000000;stroke-width:0.9289;stroke-linecap:round;stroke-linejoin:round;stroke-miterlimit:10;" d="
					M186.788,41.943c1.436-2.312,3.657-3.645,6.126-3.354c4.212,0.495,7.561,5.534,7.503,11.256
					c-0.058,5.723-3.499,10.019-7.712,9.592c-3.547-0.358-6.515-3.947-7.358-8.505"/>
				
					<path style="fill:none;stroke:#000000;stroke-width:0.9289;stroke-linecap:round;stroke-linejoin:round;stroke-miterlimit:10;" d="
					M196.448,38.904c1.416-2.291,3.603-3.609,6.035-3.315c4.149,0.502,7.446,5.511,7.39,11.191
					c-0.057,5.679-3.448,9.935-7.598,9.501c-3.494-0.365-6.417-3.934-7.247-8.459"/>
				
					<path style="fill:none;stroke:#000000;stroke-width:0.9289;stroke-linecap:round;stroke-linejoin:round;stroke-miterlimit:10;" d="
					M207.19,34.83c1.391-2.266,3.542-3.566,5.933-3.268c4.079,0.511,7.321,5.488,7.265,11.12c-0.056,5.632-3.391,9.841-7.472,9.398
					c-3.434-0.374-6.307-3.922-7.123-8.412"/>
				<path style="fill:#F2F2F2;" d="M206.275,64.448l-97.598,32.006c0.228,64.451-1.387,145.988-1.46,218.102l106.048-49.053
					C210.511,194.745,209.053,128.368,206.275,64.448z M196.638,85.9l1.953,61.442l-32.592,10.885l-1.164-61.62L196.638,85.9z
					 M123.705,110.018l31.683-10.668l0.928,61.651l-32.467,10.845L123.705,110.018z M123.427,288.591
					c-0.165-32.917,0.124-70.762,0.295-106.709l74.9-25.096l0.115-3.943c0.865,32.447,1.662,65.996,2.787,98.462L123.427,288.591z"
					/>
				<path style="fill:#DEDEDE;" d="M211.041,68.596l-97.865,32.067c0.345,64.727-1.125,146.622-1.069,219.066l106.333-49.19
					C215.54,199.458,213.951,132.791,211.041,68.596z M201.413,90.132l2.076,61.707l-32.684,10.908l-1.282-61.886L201.413,90.132z
					 M128.279,114.296l31.769-10.689l1.047,61.917l-32.559,10.866L128.279,114.296z M128.327,293.658
					c-0.225-33.068-0.006-71.082,0.101-107.189l75.111-25.146l0.108-3.96c0.93,32.589,1.793,66.288,2.985,98.903L128.327,293.658z"
					/>
				<path style="fill:#F5A84E;" d="M106.763,276.648c0,0,15.252,27.746,19.736,65.631c0,0-10.26,16.127-39.6,16.937l2.483-64.065
					L106.763,276.648z"/>
				<path style="fill:#F5A84E;" d="M89.382,295.151c65.504-37.454,57.8-223.006,57.8-223.006
					c-26.082,9.752-39.29,14.212-67.312,23.735L89.382,295.151z"/>
				
					<path style="opacity:0.05;stroke:#000000;stroke-width:0.9289;stroke-linecap:round;stroke-linejoin:round;stroke-miterlimit:10;" d="
					M102.375,326.913c-3.029-4.083-3.966-8.862-4.33-13.981c-0.397-5.569-0.768-11.216-0.911-16.813
					c-0.376-14.617,0.866-29.425,1.515-44.087c0.655-14.763,1.369-29.57,0.826-44.275c-0.548-14.841-2.662-29.471-3.3-44.311
					c-1.053-24.463-0.005-49.025,1.413-73.594c-5.326,1.82-11.106,3.782-17.718,6.029l9.513,199.271l-2.483,64.065
					c29.34-0.81,39.6-16.937,39.6-16.937c-0.025-0.214-0.055-0.423-0.081-0.638C116.877,338.762,107.908,334.374,102.375,326.913z"
					/>
				<path style="fill:#F5A84E;" d="M227.105,215.873c0,0-26.616,19.063-13.415,83.554c5.096,1.36,16.371-12.37,16.371-12.37
					L227.105,215.873z"/>
				<path style="fill:#F5A84E;" d="M227.248,233.926c0.255-25.425-1.328-127.339-2.75-189.382
					c-20.967,6.863-41.514,15.463-63.454,22.596C161.044,67.14,174.542,215.659,227.248,233.926z"/>
				
					<path style="opacity:0.05;stroke:#000000;stroke-width:0.9289;stroke-linecap:round;stroke-linejoin:round;stroke-miterlimit:10;" d="
					M221.876,293.861c0.705-11.784,3.485-23.237,5.832-34.782c0.346-1.697,0.673-3.398,0.979-5.101l-1.433-34.509
					c-0.006-1.476-0.016-3.028-0.026-4.636c-2.428-8.48-5.717-16.685-9.148-24.819c-9.681-22.946-17.929-46.248-25.09-70.118
					c-5.763-19.21-15.072-37.695-17.48-57.712c-4.769,1.699-9.578,3.367-14.465,4.955c0,0,11.808,129.897,56.449,161.668
					c-5.992,12.177-11.274,34.122-3.804,70.619c2.073,0.553,5.168-1.392,8.112-3.892
					C221.822,294.977,221.842,294.418,221.876,293.861z"/>
				
					<path style="fill:#FFFFFF;stroke:#000000;stroke-width:0.9289;stroke-linecap:round;stroke-linejoin:round;stroke-miterlimit:10;" d="
					M131.976,189.98"/>
			</g>
		</g>
	</g>
	<g>
		<path style="fill:#DBC8B6;" d="M446.289,408.162l13.858-168.314c-0.572-0.548-0.881-0.836-0.881-0.836
			c-76.941-50.779-164.782-16.737-164.782-16.737c-0.069,0.134-18.706,14.544-18.706,14.544l12.448,71.763L432.37,412.838
			L446.289,408.162z"/>
		<path style="opacity:0.05;stroke:#000000;stroke-linecap:round;stroke-linejoin:round;stroke-miterlimit:10;" d="M459.048,400.32
			c-4.306-3.78-12.469-3.557-17.853-3.679c-9.829-0.222-19.705,0.604-29.439,1.691c-9.583,1.069-18.668,3.312-28.082,5.211
			c-16.961,3.421-33.649,3.977-50.732,2.497c-25.95-2.247-52.325-1.781-77.089,6.65c-27.948,9.514-50.892,29.778-72.199,48.959
			c-21.042,18.943-39.953,40.36-62.437,57.55c-11.254,8.604-22.677,17.028-32.715,27c-7.413,7.364-14.539,16.256-16.787,26.537
			c-0.28,0.021-0.473,0.122-0.489,0.314c-0.094,1.206-0.131,2.392-0.117,3.557c-0.005,0.056-0.016,0.112-0.021,0.168
			c-0.006,0.079,0.008,0.154,0.032,0.229c0.173,7.121,2.563,13.375,8.776,17.887c6.752,4.906,15.937,6.178,24.066,7.189
			c5.862,0.73,11.775,1.084,17.641,1.867c8.903,1.188,17.654,3.472,26.423,5.442c15.569,3.497,31.456,4.856,47.451,5.979
			c15.218,1.069,31.001,2.574,46.24,0.302c13.401-1.998,25.909-7.474,38.092-13.12c25.022-11.595,52.364-21.325,70.456-42.84
			c8.714-10.361,15.195-22.331,22.402-33.668c8.117-12.768,18.075-23.607,29.149-34.08c10.234-9.68,20.988-19.11,29.439-30.349
			c4.916-6.536,9.581-13.292,14.405-19.902c5.629-7.708,11.181-15.709,14.767-24.494
			C462.677,411.704,464.094,404.753,459.048,400.32z"/>
		
			<path style="opacity:0.05;stroke:#000000;stroke-width:0.9478;stroke-linecap:round;stroke-linejoin:round;stroke-miterlimit:10;" d="
			M444.993,392.178c-4.065-3.574-11.786-3.358-16.878-3.471c-9.292-0.204-18.631,0.583-27.839,1.618
			c-9.063,1.018-17.659,3.145-26.565,4.947c-16.047,3.247-31.837,3.783-48.002,2.394c-24.561-2.111-49.529-1.655-72.979,6.342
			c-26.469,9.026-48.203,28.23-68.388,46.407c-19.935,17.955-37.852,38.25-59.157,54.549c-10.665,8.159-21.491,16.147-31.003,25.6
			c-7.026,6.981-13.778,15.41-15.906,25.147c-0.266,0.021-0.449,0.113-0.463,0.298c-0.09,1.142-0.125,2.264-0.11,3.367
			c-0.005,0.055-0.015,0.106-0.02,0.159c-0.007,0.074,0.006,0.146,0.03,0.215c0.166,6.742,2.435,12.66,8.325,16.924
			c6.4,4.633,15.106,5.825,22.81,6.771c5.557,0.683,11.159,1.009,16.718,1.743c8.436,1.112,16.726,3.263,25.036,5.114
			c14.747,3.287,29.795,4.551,44.942,5.591c14.41,0.991,29.352,2.392,43.779,0.221c12.684-1.91,24.524-7.107,36.055-12.464
			c23.68-11,49.548-20.238,66.668-40.607c8.247-9.811,14.381-21.138,21.202-31.869c7.682-12.086,17.104-22.347,27.582-32.263
			c9.683-9.164,19.855-18.095,27.853-28.731c4.653-6.188,9.064-12.582,13.63-18.838c5.324-7.295,10.58-14.868,13.977-23.18
			C448.419,402.946,449.763,396.369,444.993,392.178z"/>
		<polygon style="fill:#CFBDAC;" points="437.66,424.658 452.636,415.519 460.147,239.849 441.365,248.921 		"/>
		<path style="fill:#BFAD99;" d="M437.66,424.658l3.705-175.737c-0.573-0.548-0.878-0.836-0.878-0.836
			c-76.71-50.802-164.708-11.265-164.708-11.265c-0.069,0.134-0.144,0.276-0.216,0.413l-6.014,82.763l143.711,104.342
			L437.66,424.658z"/>
		<path style="fill:#F2F2F2;" d="M274.423,567.149c40.928-28.804,151.853-133.814,154.923-157.339
			c2.684-20.55,1.51-81.674,1.51-81.674c-38.699,24.69-114.985,102.711-153.427,132.012L274.423,567.149z"/>
		<path style="fill:#D98488;" d="M390.444,364.672c0.022-0.612,0.136-1.166,0.322-1.663c-0.429-0.791-0.876-1.563-1.321-2.338
			c-38.434,33.393-84.742,78.689-112.016,99.477l-3.006,107.001c25.563-17.989,78.378-65.659,115.25-104.72
			C390.416,429.735,389.244,397.177,390.444,364.672z"/>
		<path style="fill:#B85C60;" d="M368.574,387.41l-2.391,98.979c8.232-8.127,16.179-16.215,23.49-23.96
			c0.743-32.694-0.43-65.253,0.771-97.758c0.022-0.612,0.136-1.166,0.322-1.663c-0.429-0.791-0.876-1.563-1.321-2.338
			c-7.952,6.909-16.243,14.331-24.631,21.936C366.902,383.122,368.639,384.726,368.574,387.41z"/>
		<path style="fill:#FFFFFF;" d="M277.429,460.148c40.742-28.86,144.104-115.561,153.427-132.012
			c-126.353-37.884-158.964-14.692-158.964-14.692c-37.918,24.401-99.216,70.79-139.159,99.348L277.429,460.148z"/>
		<path style="opacity:0.05;stroke:#000000;stroke-linecap:round;stroke-linejoin:round;stroke-miterlimit:10;" d="M414.752,321.12
			c-13.102-3.326-27.118-4.685-40.52-6.222c-19.679-2.258-39.489-3.433-59.2-4.096c-15.987-0.539-32.553-0.379-48.032,4.072
			c-0.499-0.172-1.014-0.246-1.297-0.114c-8.727,4.07-14.509,13.227-16.154,22.162c-1.82,9.891,4.918,15.717,13.358,19.641
			c10.616,4.936,23.283,5.932,34.929,7.347c16.541,2.009,33.449-1.617,50.183-0.246c7.538,0.618,15.022,1.365,22.63,1.055
			c6.801-0.278,13.141-2.307,19.386-4.865c11.955-4.898,22.816-12.023,31.394-21.416
			C428.628,330.558,424.075,323.486,414.752,321.12z"/>
		<path style="fill:#E69A9D;" d="M223.541,346.774c-31.229,22.38-65.347,47.814-90.808,66.018l144.696,47.356
			c26.134-18.513,76.554-59.515,112.895-91.839C334.188,358.739,279.53,350.207,223.541,346.774z"/>
		<path style="fill:#D98488;" d="M272.548,372.53c27.744,3.743,55.608,7.607,83.567,11.645c4.557,0.657,9.111,1.332,13.667,2.016
			c7.691-6.587,13.682-11.78,20.542-17.882c-56.136-9.57-110.794-18.103-166.783-21.535c-6.971,4.996-14.087,10.147-21.219,15.333
			C225.703,365.2,248.989,369.352,272.548,372.53z"/>
		<path style="fill:#DBC8B6;" d="M95.372,424.211c-1.08,3.159-2.034,6.445-2.884,9.823c22.707-2.88,45.648-0.209,68.521,0.857
			c26.157,1.22,52.327,2.647,78.297,7.33c17.16,3.095,51.045,2.834,51.045,2.834l25.093-13.439
			c-95.463-65.983-202.166-18.504-202.166-18.504L95.372,424.211z"/>
		<path style="fill:#CFBDAC;" d="M315.445,431.617c0,0-1.892,86.87-15.526,142.876l-15.338,14.545l13.247-146.63L315.445,431.617z"
			/>
		<path style="fill:#CFBDAC;" d="M147.729,438.975c0,0-2.754,81.379-16.468,136.67l-15.057,14.358l14.028-144.768L147.729,438.975z"
			/>
		<path style="fill:#BFAD99;" d="M83.57,583.803c0,0-15.685-106.526,11.802-159.592c0,0,109.787-48.659,205.029,17.383
			c0,0-4.073,105.047-15.82,147.444c0,0-10.179,8.196-34.454,3.325c0,0-0.851-7.938,0.863-11.059c0,0-85.25,8.833-131.557-7.009
			l-3.199,15.707C116.234,590.003,91.768,588.187,83.57,583.803z"/>
		
			<path style="opacity:0.05;stroke:#000000;stroke-width:0.9478;stroke-linecap:round;stroke-linejoin:round;stroke-miterlimit:10;" d="
			M119.433,574.296c8.536,2.92,18.389,4.999,28.786,6.453c7.831-13.789,4.471-28.331-1.857-41.939
			c-6.352-13.658-14.684-25.958-30.652-29.028c-12.125-2.331-24.443-0.453-36.567,1.596c-0.521,38.81,4.428,72.425,4.428,72.425
			c8.197,4.384,32.664,6.2,32.664,6.2L119.433,574.296z"/>
		<path style="fill:#E6E6E6;" d="M262.724,307.74c0,0,9.586-29.904,24.223-36.496c14.661-6.602,46.856-7.605,101.27-1.038
			c41.08,4.958,37.376,26.927,33.208,46.923c-3.367,16.144-7.874,28.418-39.997,30.099c-33.436,1.749-72.817-4.465-95.587-8.046
			C263.16,335.613,252.957,329.208,262.724,307.74z"/>
		<path style="opacity:0.03;stroke:#000000;stroke-linecap:round;stroke-linejoin:round;stroke-miterlimit:10;" d="M406.03,329.596
			c-13.628,2.357-27.854,3.039-41.583,3.869c-15.896,0.961-31.862,1.171-47.51-1.135c-11.336-1.67-22.803-4.865-31.075-12.751
			c-12.39-11.809-13.046-28.038-6.652-42.448c-10.182,10.947-16.487,30.609-16.487,30.609c-9.767,21.468,0.436,27.873,23.118,31.441
			c22.77,3.581,62.15,9.795,95.587,8.046c26.334-1.377,34.111-9.885,37.912-21.808C415.215,327.383,410.755,328.779,406.03,329.596z
			"/>
	</g>
	<g>
		
			<path style="opacity:0.05;stroke:#000000;stroke-width:0.5556;stroke-linecap:round;stroke-linejoin:round;stroke-miterlimit:10;" d="
			M521.486,613.099c-14.504-2.95-30.504-7.95-45.504,1.05c-4,3-5,9-2,13c6,6,13,8,21,9c12,1,28,0,28.581-15.094
			C523.61,617.944,522.932,614.889,521.486,613.099z"/>
		<g>
			<polygon style="fill:#BDD6BF;" points="473.695,624.217 497.902,633.529 497.902,605.032 473.695,595.72 			"/>
			<polygon style="fill:#CFBDAC;" points="522.108,624.217 497.902,633.529 497.902,605.032 522.108,595.72 			"/>
			<polygon style="fill:#F5D8B5;" points="497.902,605.032 522.108,595.72 497.902,586.406 473.695,595.72 			"/>
		</g>
	</g>
	<g>
		
			<path style="opacity:0.05;stroke:#000000;stroke-width:0.8631;stroke-linecap:round;stroke-linejoin:round;stroke-miterlimit:10;" d="
			M585.104,699.231c-13.104-4.513-27.104-10.513-40.655-9.66c-2.963,0.106-5.952,0.441-8.932,1.024
			c-5.959,1.167-11.883,3.303-17.708,6.799c-6.215,4.659-7.768,13.981-3.107,20.194c9.321,9.321,20.196,12.429,32.624,13.982
			c3.107,0.259,6.387,0.432,9.7,0.431c3.313,0,6.658-0.174,9.896-0.608c2.346-0.112,4.69-0.54,6.94-1.247
			c2.251-0.708,4.409-1.696,6.383-2.931c8.753-4.497,11.753-14.497,7.897-23.184C587.352,702.168,586.333,700.499,585.104,699.231z"
			/>
		<g>
			<polygon style="fill:#D98488;" points="519.104,715.771 552.329,728.552 552.329,689.438 519.104,676.657 			"/>
			<polygon style="fill:#BDD6BF;" points="585.553,715.771 552.329,728.552 552.329,689.438 585.553,676.657 			"/>
			<polygon style="fill:#F5B264;" points="552.329,689.438 585.553,676.657 552.329,663.874 519.104,676.657 			"/>
		</g>
	</g>
	<g>
		
			<path style="opacity:0.05;stroke:#000000;stroke-width:0.5188;stroke-linecap:round;stroke-linejoin:round;stroke-miterlimit:10;" d="
			M583.003,590.208c-13.543-2.755-28.483-7.424-42.489,0.98c-3.735,2.801-4.669,8.403-1.867,12.138
			c5.603,5.603,12.139,7.471,19.608,8.404c11.205,0.934,26.145,0,26.688-14.094C584.986,594.732,584.352,591.879,583.003,590.208z"
			/>
		<g>
			<polygon style="fill:#7FCEF5;" points="541.976,600.115 562.682,609.027 562.682,581.754 541.976,572.842 			"/>
			<polygon style="fill:#E69A9D;" points="583.388,600.115 562.682,609.027 562.682,581.754 583.388,572.842 			"/>
			<polygon style="fill:#BDD6BF;" points="562.682,581.754 583.388,572.842 562.682,563.928 541.976,572.842 			"/>
		</g>
	</g>
	<g>
		
			<path style="opacity:0.05;stroke:#000000;stroke-width:2.447;stroke-linecap:round;stroke-linejoin:round;stroke-miterlimit:10;" d="
			M773.277,405.785c-19.76-15.565-51.072-7.312-74.658-8.742c-35.974-2.184-78.929-4.137-114.942-2.806
			c-16.077,0.598-29.282,5.702-45.141,8.519c-10.008,1.781-20.784,7.16-26.411,15.951c-10.599,16.561-10.833,40.154,7.386,46.579
			c1.631,0.576,2.75,0.429,3.28-0.035c24.539,9.699,56.92,6.963,83.203,8.917c30.653,2.28,63.857-3.254,94.57-2.195
			c26.116,0.897,51.891,6.982,72.501-10.71C788.828,447.73,789.194,418.327,773.277,405.785z"/>
		<g>
			<polygon style="fill:#CFBDAC;" points="583.563,325.409 583.677,409.048 587.046,396.217 587.046,325.409 			"/>
			<polygon style="fill:#AB9B88;" points="569.956,325.409 572.418,409.048 583.677,409.048 583.563,325.409 			"/>
			<polygon style="fill:#CFBDAC;" points="527.217,457.661 532.308,446.667 533.159,328.554 526.991,328.554 			"/>
			<path style="fill:#B3A28F;" d="M512.473,314.561c0,0,2.053,117.478,3.484,143.1h11.26l-0.226-129.107L800,332.309v-14.315
				L512.473,314.561z"/>
			<polygon style="fill:#CFBDAC;" points="512.473,314.561 579.592,252.989 800,255.564 800,317.994 			"/>
		</g>
	</g>
	<g>
		
			<path style="opacity:0.05;stroke:#000000;stroke-width:1.0423;stroke-linecap:round;stroke-linejoin:round;stroke-miterlimit:10;" d="
			M745.241,290.932c-10.879-5.13-28.966-4.77-41.951-5.241c-19.805-0.719-39.979-0.695-59.808-0.256
			c-8.852,0.196-18.071,0.516-26.802,1.444c-5.51,0.587-11.444,2.359-14.542,5.257c-5.835,5.458-2.517,11.169,7.513,13.287
			c0.899,0.19,1.516,0.142,1.808-0.011c13.51,3.196,27.89,4.357,42.36,5.001c16.877,0.752,33.917,1.653,50.828,2.002
			c14.379,0.296,29.81-0.424,41.156-6.255C754.482,301.7,754.005,295.065,745.241,290.932z"/>
		<g>
			<polygon style="fill:#4D4D4D;" points="603.161,298.113 622.332,284.364 738.281,286.963 748.693,299.675 			"/>
			<polygon style="fill:#808080;" points="603.161,298.113 604.762,305.827 746.405,307.284 748.693,299.675 			"/>
		</g>
	</g>
	<g>
		
			<path style="opacity:0.05;stroke:#000000;stroke-width:0.8581;stroke-linecap:round;stroke-linejoin:round;stroke-miterlimit:10;" d="
			M725.287,269.48c-6.931-5.459-18.45-5.075-26.722-5.577c-12.615-0.765-25.466-0.739-38.096-0.272
			c-5.638,0.208-11.511,0.548-17.072,1.537c-3.509,0.624-7.289,2.51-9.262,5.593c-3.718,5.807-1.604,11.886,4.785,14.139
			c0.572,0.202,0.965,0.15,1.15-0.012c8.605,3.401,17.766,4.637,26.982,5.322c10.751,0.8,21.605,1.759,32.376,2.13
			c9.158,0.316,18.988-0.452,26.216-6.656C731.174,280.939,730.868,273.877,725.287,269.48z"/>
		<path style="fill:#808080;" d="M719.414,271.604c0,6.392-18.681,11.574-41.724,11.574c-23.044,0-41.723-5.182-41.723-11.574
			c0-1.116-0.286-4.023,0.776-5.044c5.023-4.827,21.927-6.529,40.946-6.529c20.107,0,37.326,1.815,41.277,7.067
			C719.545,267.865,719.414,270.79,719.414,271.604z"/>
		<path style="fill:#4D4D4D;" d="M719.414,268.79c0,6.392-18.681,11.574-41.724,11.574c-23.044,0-41.723-5.182-41.723-11.574
			s18.679-11.574,41.723-11.574C700.733,257.217,719.414,262.399,719.414,268.79z"/>
		<path style="fill:#333333;" d="M692.827,228.731c0-2.37-1.92-4.291-4.29-4.291h-18.25c-2.37,0-4.291,1.921-4.291,4.291
			l-2.344,36.481c0,0.195,0.019,0.363,0.044,0.52c-0.019,0.113-0.044,0.224-0.044,0.338c0,2.976,6.007,5.387,13.416,5.387
			c7.41,0,13.416-2.412,13.416-5.387c0-0.114-0.025-0.225-0.042-0.338c0.024-0.157,0.042-0.325,0.042-0.52L692.827,228.731z"/>
		
			<path style="opacity:0.1;stroke:#000000;stroke-width:0.8581;stroke-linecap:round;stroke-linejoin:round;stroke-miterlimit:10;" d="
			M691.417,260.481l1.41-31.75c0-2.37-1.92-4.291-4.29-4.291h-18.25c-2.37,0-4.291,1.921-4.291,4.291l-1.472,33.126
			C673.479,261.109,682.445,260.682,691.417,260.481z"/>
		<polygon style="fill:#808080;" points="751.198,250.214 748.343,252.597 616.619,248.302 617.477,156.887 620.333,154.504 
			754.911,156.415 		"/>
		<polygon style="fill:#4D4D4D;" points="748.343,252.597 613.765,250.685 617.477,156.887 752.056,158.799 		"/>
		<polygon style="fill:#42447A;" points="738.465,242.798 624.203,241.175 627.355,167.278 741.617,168.901 		"/>
		<path style="opacity:0.1;fill:#FFFFFF;" d="M644.345,167.52l-16.989-0.241l-0.768,17.998
			C632.507,179.357,638.426,173.439,644.345,167.52z"/>
		<path style="opacity:0.05;fill:#FFFFFF;" d="M740.894,185.844l0.723-16.943l-33.599-0.478
			c-24.303,24.303-48.604,48.605-72.907,72.907l49.449,0.703C703.325,223.29,722.124,204.581,740.894,185.844z"/>
		
			<path style="fill:#FFFFFF;stroke:#000000;stroke-width:0.8581;stroke-linecap:round;stroke-linejoin:round;stroke-miterlimit:10;" d="
			M680.271,246.371c0,1.424-1.155,2.58-2.58,2.58s-2.579-1.155-2.579-2.58c0-1.425,1.154-2.58,2.579-2.58
			S680.271,244.946,680.271,246.371z"/>
	</g>
	<g>
		
			<path style="opacity:0.05;stroke:#000000;stroke-width:1.6698;stroke-linecap:round;stroke-linejoin:round;stroke-miterlimit:10;" d="
			M758.214,504.729c-3.636-1.951-7.911-1.607-11.394-2.112c-1.922,0.155-3.794,0.307-5.64,0.431
			c-1.845,0.124-3.666,0.222-5.492,0.273c-27.656-1.502-54.224-0.145-81.938,2.002c-2.687,0.228-5.373,0.438-8.056,0.614
			c-2.684,0.178-5.364,0.323-8.042,0.426c-2.405,0.433-4.792,0.945-7.137,1.57c-7.032,1.878-13.684,4.77-19.323,9.54
			c-8.775,8.557-9.417,21.951-2.616,31.606c0.981,1.492,2.259,2.663,3.754,3.614c4.484,2.852,10.919,3.703,17.141,5.153
			c3.368,0.813,6.76,1.619,10.166,2.396c2.273,0.517,4.552,1.021,6.843,1.504c26.334,4.919,54.359,0.305,80.734-6.251
			c2.841-1.041,5.568-2.248,8.178-3.604c8.701-4.521,16.146-10.711,21.311-19.646c1.034-1.787,1.976-3.684,2.818-5.699
			c2.55-5.536,3.758-11.912,2.685-18.092C761.376,506.833,760.047,505.559,758.214,504.729z"/>
		<g>
			<polygon style="fill:#B3A28F;" points="627.818,551.956 636.425,545.399 638.063,466.166 627.818,463.031 			"/>
			<polygon style="fill:#EBD6C3;" points="615.115,442.134 697.077,417.217 760.59,437.248 683.14,468.94 			"/>
			<path style="fill:#CFBDAC;" d="M743.636,449.374l-1.358,71.74l10.098,4.803l2.471-71.815
				C751.215,452.275,747.465,450.719,743.636,449.374z"/>
			<polygon style="fill:#CFBDAC;" points="615.115,546.629 615.115,442.134 679.042,466.166 680.891,325.693 691.955,330.581 
				688.569,565.773 675.2,560.972 674.534,481.771 630.277,466.166 627.818,551.956 			"/>
			<path style="opacity:0.4;fill:#B3A28F;" d="M616.155,447.564c8.055,8.409,17.206,16.522,28.386,20.438
				c7.979,2.794,17.772,5.627,26.258,6.22c2.934,0.205,8.167,0.731,9.821-2.499c1.001-1.955-0.026-4.57-1.558-7.089l-0.021,1.533
				l-63.927-24.032v4.582C615.472,446.94,615.821,447.215,616.155,447.564z"/>
			<polygon style="fill:#B3A28F;" points="688.159,565.774 697.623,559.218 697.657,480.295 753.092,456.582 752.31,526.374 
				761.773,519.816 770.834,309.602 691.955,330.581 689.831,477.809 			"/>
			<polygon style="fill:#EBD6C3;" points="680.891,325.693 760.59,304.714 770.834,309.602 691.955,330.581 			"/>
			<path style="fill:#E69A9D;" d="M619.752,430.454c-11.77,5.676-11.756,12.624-2.139,17.468
				c15.379,7.746,52.752,18.601,61.429,18.244l0.708-53.797C667.388,414.695,640.282,420.554,619.752,430.454z"/>
			<path style="opacity:0.1;fill:#FFFFFF;" d="M670.408,421.548c-7.491,2.556-15.382,6.547-16.232,14.914
				c2.451,2.188,4.908,4.368,7.491,6.39c5.644,0.977,11.815,0.084,17.703-1.614l0.293-22.241
				C676.543,419.706,673.446,420.512,670.408,421.548z"/>
			<path style="opacity:0.6;fill:#D98488;" d="M660.096,453.715c-6.741-1.672-13.111-4.425-19.602-6.842
				c-5.037-1.876-10.757-3.04-15.183-6.256c-3.068-2.23-6.646-5.361-6.974-9.44c-10.33,5.534-9.938,12.105-0.725,16.745
				c15.379,7.746,52.752,18.601,61.429,18.244l0.168-12.776C673.445,455.138,667.113,455.456,660.096,453.715z"/>
		</g>
	</g>
	<g>
		
			<path style="opacity:0.05;stroke:#000000;stroke-width:0.5837;stroke-linecap:round;stroke-linejoin:round;stroke-miterlimit:10;" d="
			M533.7,544.93c-0.761-1.156-2.007-1.509-2.918-2.094c-0.56-0.158-1.105-0.313-1.64-0.473c-0.535-0.162-1.06-0.329-1.578-0.517
			c-7.565-3.698-15.202-6.184-23.269-8.494c-0.785-0.218-1.566-0.441-2.344-0.677c-0.776-0.234-1.548-0.482-2.314-0.746
			c-0.732-0.107-1.47-0.181-2.212-0.206c-2.223-0.079-4.475,0.273-6.692,1.458c-3.601,2.276-5.561,7.318-4.936,11.773
			c0.078,0.679,0.281,1.272,0.574,1.804c0.879,1.595,2.572,2.648,4.126,3.903c0.838,0.691,1.683,1.383,2.536,2.065
			c0.569,0.454,1.142,0.903,1.721,1.347c6.738,4.854,15.22,6.26,23.495,6.737c0.935-0.077,1.861-0.229,2.775-0.453
			c3.043-0.742,5.955-2.264,8.594-5.093c0.527-0.565,1.044-1.183,1.548-1.857c1.452-1.825,2.639-4.124,3.16-6.605
			C534.309,546.091,534.104,545.453,533.7,544.93z"/>
		<g>
			<path style="fill:#BDD6BF;" d="M516.249,546.277c0,0,5.593-1.472,6.22-2.517c0.626-1.045-5.581-6.773-5.581-6.773h-13.982
				l-0.814,4.017v9.531c0,0,3.265-3.73,10.128-1.613c6.863,2.117,4.03,6.615,4.03,6.615V546.277z"/>
			<path style="fill:#E69A9D;" d="M527.617,550.019c4.388-5.92-0.313-13.637-10.503-17.235c-10.187-3.599-22.002-1.717-26.391,4.202
				l11.367,4.017c1.685-2.272,6.219-2.994,10.128-1.613c3.91,1.381,5.714,4.343,4.03,6.614L527.617,550.019z"/>
			<polygon style="fill:#CFBDAC;" points="490.724,546.519 490.724,536.986 502.091,541.003 502.091,550.534 			"/>
			<polygon style="fill:#CFBDAC;" points="516.249,555.536 516.249,546.004 527.617,550.019 527.617,559.551 			"/>
			<path style="fill:#F5B264;" d="M527.617,559.551v-9.531c0,0,1.918-2.924,1.643-4.867v10.384
				C529.261,555.536,528.628,557.502,527.617,559.551z"/>
		</g>
	</g>
	<g>
		
			<path style="opacity:0.05;stroke:#000000;stroke-width:1.3592;stroke-linecap:round;stroke-linejoin:round;stroke-miterlimit:10;" d="
			M772.045,662.836c-24.045-6.099-49.732-14.207-74.597-13.056c-5.435,0.145-10.921,0.597-16.388,1.385
			c-10.933,1.577-21.803,4.464-32.491,9.189c-11.403,6.297-14.253,18.894-5.7,27.293c17.104,12.598,37.058,16.798,59.86,18.897
			c5.701,0.35,11.719,0.583,17.798,0.582c6.078,0,12.217-0.235,18.159-0.822c4.304-0.151,8.605-0.729,12.734-1.685
			c4.13-0.957,8.09-2.292,11.711-3.961c16.061-6.077,21.565-19.593,14.491-31.333C776.17,666.805,774.299,664.55,772.045,662.836z"
			/>
		<g>
			<polygon style="fill:#CFBDAC;" points="644.106,689.265 647.494,627.846 738.703,640.231 736.332,701.381 			"/>
			<polygon style="fill:#B3A28F;" points="774.305,666.363 777.465,609.065 738.703,640.231 736.332,701.381 			"/>
			<polygon style="fill:#EBD6C3;" points="647.434,628.94 703.832,599.034 777.465,609.065 738.703,640.231 			"/>
		</g>
	</g>
	<g>
		<path style="opacity:0.05;stroke:#000000;stroke-linecap:round;stroke-linejoin:round;stroke-miterlimit:10;" d="M445.732,81.892
			c0.835-2.449,1.295-5.071,1.295-7.803c0-3.3-0.664-6.444-1.861-9.31c-0.27-8.01-0.561-16.498-0.877-25.627
			c-0.132-0.007-0.263-0.014-0.395-0.021c0,0,0,0,0,0c-0.15-0.008-0.3-0.016-0.449-0.024c-0.627-0.034-1.254-0.068-1.88-0.101
			c-0.185-0.009-0.369-0.019-0.554-0.028c-0.619-0.032-1.238-0.063-1.855-0.093c-0.179-0.008-0.355-0.017-0.533-0.025
			c-0.624-0.03-1.249-0.06-1.871-0.088c-0.157-0.007-0.314-0.014-0.47-0.021c-0.651-0.029-1.303-0.058-1.952-0.086
			c-0.089-0.004-0.178-0.007-0.267-0.011c-0.709-0.03-1.417-0.059-2.123-0.087c-0.063-0.003-0.124-0.005-0.187-0.007
			c-0.726-0.028-1.449-0.056-2.171-0.083c-0.073-0.003-0.146-0.005-0.218-0.008c-0.719-0.026-1.436-0.052-2.15-0.076
			c-0.033-0.001-0.067-0.002-0.102-0.003c-2.314-0.078-4.607-0.146-6.874-0.205c-0.001,0-0.003,0-0.004,0
			c-37.664-0.973-65.268-5.286-70.441-4.994c-0.136,0.008-3.453,5.93-3.553,5.936c-0.167,0.01-0.286,0.017-0.351,0.021
			c-0.041,0.003-0.069,0.004-0.069,0.004c0.206,46.809,2.183,115.385,3.55,141.654c0.024,0,0.05,0,0.074,0
			c29.123,0,86.413,0,96.767,0c1.056,0,1.627,0,1.627,0c2.346-3.425,3.982-4.853,3.973-5.961
			C451.54,141.649,446.889,117.665,445.732,81.892z"/>
		<g>
			<path style="fill:#CFB9A4;" d="M431.012,58.411c-0.132,33.384,2.04,60.348,2.26,90.165c0,0-42.267,0-62.677,0
				c-0.278-16.708-2.125-59.534-2.26-90.165C368.335,58.411,403.145,56.798,431.012,58.411z"/>
			<path style="fill:#A19180;" d="M448.262,33.191c2.135,61.787,3.206,94.809,3.551,141.654c0,0-66.403,0-98.468,0
				C351.977,148.576,350,80,349.794,33.191C349.794,33.191,396.5,30.318,448.262,33.191z"/>
			<path style="fill:#8C7B6A;" d="M433.385,150.075c-4.157-3.984-10.232-4.669-15.699-5.444c-6.964-0.988-13.899-2.129-20.887-2.942
				c-6.412-0.746-15.743-3.753-20.835,1.458c-8.736,8.939-17.326,20.185-22.545,31.699h96.767c-2.164-2.948-4.251-5.922-6.339-8.771
				C440.207,161.106,437.843,154.347,433.385,150.075z"/>
			<path style="fill:#8C7B6A;" d="M369.436,60.203c10.157-0.333,20.223,1.593,30.392,1.242c10.271-0.355,20.49-1.545,30.765-1.816
				c1.968-2.975,4.015-5.909,5.858-9.061c2.096-3.583,3.949-7.359,6.443-10.688c1.597-2.131,4.086-4.143,4.972-6.708
				c-51.604-2.836-98.073,0.021-98.073,0.021c0,0.026,0,0.053,0.001,0.079c3.54,3.846,6.123,8.559,8.76,13.203
				C362.563,50.641,365.438,55.9,369.436,60.203z"/>
			<path style="fill:#CFB9A4;" d="M431.012,58.411c-0.132,33.384,2.04,60.348,2.26,90.165c0,0-42.267,0-62.677,0
				c-0.278-16.708-2.125-59.534-2.26-90.165C368.335,58.411,403.145,56.798,431.012,58.411z"/>
			<path style="fill:#71BAE0;" d="M386.749,120.526c11.582-1.204,23.112-1.76,34.761-1.522c3.558,0.073,7.483,0.122,11.043,0.2
				c-0.617-16.106-1.614-42.328-1.541-60.792c-27.867-1.613-62.677,0-62.677,0c0.074,16.799,0.975,47.013,1.537,64.828
				C375.463,121.74,381.033,121.12,386.749,120.526z"/>
			<g>
				<defs>
					<path id="SVGID_1_" d="M431.012,58.411c-0.132,33.384,2.04,60.348,2.26,90.165c0,0-42.267,0-62.677,0
						c-0.278-16.708-2.125-59.534-2.26-90.165C368.335,58.411,403.145,56.798,431.012,58.411z"/>
				</defs>
				<clipPath id="SVGID_00000145764655575460211120000016107969598139206534_">
					<use xlink:href="#SVGID_1_"  style="overflow:visible;"/>
				</clipPath>
				
					<circle style="clip-path:url(#SVGID_00000145764655575460211120000016107969598139206534_);fill:#FBD394;" cx="426.833" cy="68.128" r="24.167"/>
			</g>
			<path style="opacity:0.1;fill:#FFFFFF;" d="M390.91,60.498c0.826-0.919,1.657-1.835,2.49-2.75
				c-14.321,0.166-25.064,0.663-25.064,0.663c0.038,8.552,0.209,18.055,0.442,27.673C376.355,77.675,383.47,68.77,390.91,60.498z"/>
			<path style="opacity:0.1;fill:#FFFFFF;" d="M371.301,130.85c4.796-5.015,9.515-10.102,14.187-15.233
				c8.976-9.859,17.956-19.713,26.749-29.736c6.195-7.062,12.394-14.114,18.778-20.975c-0.01-2.14-0.013-4.302-0.004-6.495
				c-7.701-0.446-15.932-0.644-23.813-0.7c-4.368,4.49-8.602,9.112-12.738,13.824c-8.332,9.493-16.418,19.422-25.311,28.48
				c0.336,11.589,0.712,22.743,1.001,31.992C370.538,131.624,370.927,131.241,371.301,130.85z"/>
		</g>
	</g>
	<g>
		<g>
			<defs>
				<path id="SVGID_00000002380848601233513050000010584950349114974873_" d="M156.519,567.021
					c0,23.132-18.752,41.884-41.883,41.884c-23.131,0-41.883-18.752-41.883-41.884c0-23.132,18.751-41.883,41.883-41.883
					C137.767,525.139,156.519,543.89,156.519,567.021z"/>
			</defs>
			<clipPath id="SVGID_00000178165633843417129050000000985984444993628295_">
				<use xlink:href="#SVGID_00000002380848601233513050000010584950349114974873_"  style="overflow:visible;"/>
			</clipPath>
			<path style="clip-path:url(#SVGID_00000178165633843417129050000000985984444993628295_);fill:#E69A9D;" d="M156.519,567.021
				c0,23.132-18.752,41.884-41.883,41.884c-23.131,0-41.883-18.752-41.883-41.884c0-23.132,18.751-41.883,41.883-41.883
				C137.767,525.139,156.519,543.89,156.519,567.021z"/>
			
				<circle style="clip-path:url(#SVGID_00000178165633843417129050000000985984444993628295_);fill:#D98488;" cx="156.519" cy="558.109" r="19.67"/>
			
				<circle style="clip-path:url(#SVGID_00000178165633843417129050000000985984444993628295_);fill:#D98488;" cx="109.255" cy="567.671" r="19.67"/>
			
				<circle style="clip-path:url(#SVGID_00000178165633843417129050000000985984444993628295_);fill:#D98488;" cx="132.987" cy="606.604" r="19.67"/>
			
				<ellipse transform="matrix(0.9996 -0.0277 0.0277 0.9996 -16.6408 2.3175)" style="clip-path:url(#SVGID_00000178165633843417129050000000985984444993628295_);fill:#D98488;" cx="75.189" cy="600.81" rx="19.669" ry="19.67"/>
			
				<circle style="clip-path:url(#SVGID_00000178165633843417129050000000985984444993628295_);fill:#D98488;" cx="71.855" cy="535.487" r="19.67"/>
			
				<circle style="clip-path:url(#SVGID_00000178165633843417129050000000985984444993628295_);fill:#D98488;" cx="123.833" cy="525.139" r="19.67"/>
		</g>
		<path style="opacity:0.05;stroke:#000000;stroke-linecap:round;stroke-linejoin:round;stroke-miterlimit:10;" d="M114.635,588.144
			c-19.548,0-35.966-13.393-40.585-31.504c-0.846,3.32-1.298,6.798-1.298,10.381c0,23.132,18.751,41.884,41.883,41.884
			c23.132,0,41.883-18.752,41.883-41.884c0-3.583-0.452-7.061-1.298-10.381C150.602,574.751,134.184,588.144,114.635,588.144z"/>
		<path style="opacity:0.1;fill:#FFFFFF;" d="M137.761,552.747c0,14.268-11.565,25.832-25.831,25.832
			c-14.266,0-25.831-11.565-25.831-25.832c0-14.266,11.565-25.83,25.831-25.83C126.196,526.917,137.761,538.481,137.761,552.747z"/>
		<path style="opacity:0.1;fill:#FFFFFF;" d="M126.432,542.65c0,8.011-6.493,14.503-14.502,14.503
			c-8.009,0-14.501-6.492-14.501-14.503c0-8.009,6.493-14.501,14.501-14.501C119.939,528.149,126.432,534.642,126.432,542.65z"/>
		<path style="opacity:0.2;fill:#FFFFFF;" d="M121.226,532.548c0,2.43-4.162,4.398-9.296,4.398c-5.134,0-9.296-1.969-9.296-4.398
			c0-2.43,4.162-4.398,9.296-4.398C117.064,528.149,121.226,530.118,121.226,532.548z"/>
	</g>
	<g>
		<g>
			<path style="fill:#CFBDAC;" d="M288.492,774.287v-0.258c-0.349,0.398-0.691,0.725-1.03,0.973
				c-0.339,0.252-0.706,0.441-1.102,0.57c-0.396,0.133-0.827,0.195-1.296,0.195c-0.621,0-1.195-0.131-1.725-0.393
				c-0.528-0.264-0.985-0.639-1.371-1.127c-0.388-0.486-0.68-1.058-0.879-1.719c-0.199-0.658-0.3-1.371-0.3-2.137
				c0-1.621,0.396-2.885,1.188-3.791c0.792-0.904,1.833-1.358,3.125-1.358c0.747,0,1.377,0.129,1.89,0.385
				c0.514,0.256,1.014,0.652,1.501,1.182v-3.826c0-0.533,0.105-0.934,0.318-1.207c0.212-0.271,0.514-0.408,0.907-0.408
				c0.393,0,0.694,0.125,0.906,0.375c0.213,0.252,0.318,0.619,0.318,1.108v11.435c0,0.494-0.113,0.863-0.342,1.111
				c-0.228,0.246-0.521,0.369-0.883,0.369c-0.355,0-0.648-0.127-0.879-0.383C288.607,775.127,288.492,774.762,288.492,774.287z
				 M283.392,770.479c0,0.703,0.109,1.301,0.328,1.795c0.219,0.494,0.518,0.865,0.897,1.115c0.38,0.25,0.795,0.377,1.244,0.377
				c0.456,0,0.872-0.119,1.249-0.357c0.377-0.236,0.678-0.602,0.902-1.092c0.225-0.49,0.337-1.106,0.337-1.838
				c0-0.691-0.112-1.285-0.337-1.783c-0.225-0.496-0.528-0.875-0.912-1.139c-0.383-0.262-0.803-0.392-1.258-0.392
				c-0.475,0-0.899,0.135-1.273,0.402c-0.373,0.269-0.663,0.654-0.868,1.158C283.494,769.229,283.392,769.813,283.392,770.479z"/>
			<path style="fill:#CFBDAC;" d="M299.926,771.135h-5.071c0.007,0.588,0.125,1.107,0.356,1.557c0.23,0.449,0.538,0.789,0.921,1.016
				c0.384,0.229,0.807,0.342,1.269,0.342c0.31,0,0.593-0.035,0.85-0.107c0.257-0.074,0.505-0.188,0.746-0.344
				c0.241-0.154,0.462-0.32,0.665-0.498c0.202-0.178,0.464-0.42,0.788-0.723c0.133-0.113,0.323-0.172,0.57-0.172
				c0.266,0,0.48,0.074,0.645,0.221c0.165,0.147,0.248,0.35,0.248,0.617c0,0.234-0.093,0.506-0.275,0.82
				c-0.185,0.314-0.462,0.615-0.831,0.902c-0.372,0.289-0.836,0.527-1.397,0.717c-0.56,0.191-1.204,0.285-1.933,0.285
				c-1.664,0-2.96-0.475-3.884-1.424c-0.925-0.949-1.387-2.238-1.387-3.865c0-0.768,0.113-1.479,0.342-2.133
				c0.228-0.656,0.56-1.217,0.997-1.685c0.437-0.469,0.975-0.828,1.615-1.078c0.639-0.25,1.349-0.375,2.127-0.375
				c1.013,0,1.882,0.213,2.606,0.641c0.726,0.428,1.27,0.98,1.63,1.656c0.359,0.678,0.541,1.369,0.541,2.07
				c0,0.654-0.186,1.076-0.56,1.27C301.131,771.037,300.604,771.135,299.926,771.135z M294.854,769.662h4.702
				c-0.063-0.887-0.304-1.551-0.718-1.99c-0.415-0.441-0.96-0.66-1.638-0.66c-0.647,0-1.177,0.223-1.591,0.668
				C295.195,768.127,294.944,768.787,294.854,769.662z"/>
			<path style="fill:#CFBDAC;" d="M311.741,772.377c0,0.715-0.174,1.328-0.522,1.838c-0.348,0.51-0.862,0.897-1.544,1.16
				c-0.68,0.262-1.508,0.393-2.483,0.393c-0.931,0-1.729-0.143-2.394-0.428c-0.664-0.283-1.155-0.641-1.472-1.066
				c-0.316-0.43-0.475-0.857-0.475-1.289c0-0.285,0.1-0.527,0.304-0.73c0.202-0.201,0.459-0.303,0.77-0.303
				c0.271,0,0.48,0.066,0.626,0.199c0.147,0.133,0.286,0.32,0.418,0.559c0.266,0.465,0.585,0.807,0.955,1.037
				c0.37,0.227,0.875,0.342,1.516,0.342c0.519,0,0.944-0.117,1.277-0.348c0.332-0.232,0.498-0.496,0.498-0.793
				c0-0.457-0.172-0.787-0.517-0.996c-0.346-0.209-0.914-0.41-1.705-0.6c-0.893-0.221-1.619-0.455-2.18-0.699
				c-0.56-0.242-1.009-0.564-1.344-0.963c-0.336-0.398-0.504-0.891-0.504-1.473c0-0.518,0.155-1.01,0.466-1.473
				c0.31-0.461,0.767-0.83,1.373-1.105c0.604-0.275,1.333-0.414,2.189-0.414c0.671,0,1.274,0.07,1.809,0.211
				c0.536,0.137,0.983,0.326,1.34,0.561c0.358,0.232,0.63,0.492,0.816,0.777c0.187,0.285,0.28,0.563,0.28,0.836
				c0,0.297-0.1,0.541-0.299,0.732c-0.199,0.188-0.482,0.285-0.851,0.285c-0.266,0-0.492-0.076-0.679-0.231
				c-0.186-0.15-0.4-0.379-0.641-0.682c-0.196-0.254-0.427-0.457-0.693-0.609c-0.266-0.152-0.627-0.227-1.083-0.227
				c-0.469,0-0.857,0.098-1.168,0.299c-0.31,0.199-0.466,0.447-0.466,0.744c0,0.273,0.114,0.496,0.342,0.67
				c0.228,0.176,0.535,0.32,0.922,0.434c0.387,0.113,0.917,0.252,1.596,0.416c0.804,0.197,1.46,0.432,1.971,0.703
				c0.509,0.272,0.896,0.594,1.159,0.965C311.61,771.481,311.741,771.902,311.741,772.377z"/>
			<path style="fill:#CFBDAC;" d="M314.39,764.019c-0.36,0-0.669-0.111-0.926-0.332c-0.256-0.221-0.385-0.535-0.385-0.941
				c0-0.367,0.132-0.668,0.395-0.906c0.263-0.238,0.568-0.357,0.916-0.357c0.336,0,0.634,0.107,0.893,0.324
				c0.26,0.215,0.391,0.527,0.391,0.94c0,0.4-0.128,0.711-0.381,0.935C315.039,763.906,314.738,764.019,314.39,764.019z
				 M315.673,766.697v7.494c0,0.519-0.124,0.912-0.371,1.178c-0.247,0.266-0.56,0.398-0.94,0.398c-0.38,0-0.688-0.135-0.926-0.408
				c-0.238-0.271-0.356-0.662-0.356-1.168v-7.418c0-0.512,0.118-0.898,0.356-1.158c0.237-0.26,0.546-0.391,0.926-0.391
				c0.381,0,0.693,0.131,0.94,0.391C315.549,765.875,315.673,766.236,315.673,766.697z"/>
			<path style="fill:#CFBDAC;" d="M327.031,767.125v7.531c0,0.861-0.093,1.604-0.276,2.225c-0.183,0.619-0.478,1.133-0.883,1.537
				c-0.405,0.404-0.936,0.707-1.591,0.902c-0.655,0.197-1.471,0.295-2.446,0.295c-0.893,0-1.69-0.125-2.394-0.375
				c-0.702-0.252-1.243-0.574-1.624-0.969c-0.379-0.396-0.57-0.803-0.57-1.221c0-0.316,0.108-0.576,0.324-0.773
				c0.215-0.201,0.475-0.301,0.778-0.301c0.38,0,0.712,0.168,0.997,0.504c0.139,0.17,0.283,0.344,0.432,0.517
				c0.149,0.176,0.315,0.324,0.494,0.447c0.181,0.123,0.397,0.215,0.65,0.275c0.254,0.059,0.546,0.09,0.874,0.09
				c0.672,0,1.192-0.094,1.563-0.281c0.37-0.185,0.63-0.447,0.778-0.783c0.149-0.334,0.236-0.693,0.262-1.078
				c0.025-0.383,0.044-0.998,0.057-1.848c-0.399,0.559-0.859,0.982-1.383,1.273c-0.521,0.291-1.145,0.438-1.865,0.438
				c-0.868,0-1.626-0.223-2.275-0.666c-0.648-0.443-1.147-1.063-1.495-1.861c-0.349-0.799-0.523-1.719-0.523-2.764
				c0-0.777,0.105-1.482,0.317-2.107c0.213-0.629,0.516-1.156,0.907-1.588c0.393-0.43,0.846-0.754,1.358-0.973
				c0.513-0.219,1.076-0.328,1.69-0.328c0.734,0,1.371,0.143,1.909,0.422c0.538,0.283,1.039,0.725,1.501,1.326v-0.352
				c0-0.449,0.11-0.797,0.332-1.045c0.222-0.246,0.507-0.371,0.855-0.371c0.5,0,0.832,0.164,0.996,0.49
				C326.948,766.041,327.031,766.512,327.031,767.125z M319.519,770.412c0,1.051,0.229,1.846,0.688,2.383
				c0.459,0.539,1.054,0.809,1.781,0.809c0.431,0,0.837-0.117,1.22-0.348c0.384-0.231,0.695-0.58,0.937-1.045
				c0.24-0.465,0.361-1.029,0.361-1.695c0-1.057-0.232-1.881-0.698-2.469c-0.466-0.588-1.078-0.883-1.839-0.883
				c-0.741,0-1.334,0.281-1.78,0.846C319.741,768.572,319.519,769.373,319.519,770.412z"/>
			<path style="fill:#CFBDAC;" d="M331.152,766.66v0.313c0.455-0.602,0.954-1.043,1.495-1.324c0.542-0.281,1.163-0.424,1.866-0.424
				c0.684,0,1.295,0.15,1.834,0.447c0.537,0.299,0.94,0.719,1.205,1.262c0.172,0.318,0.282,0.66,0.333,1.027
				c0.051,0.367,0.077,0.836,0.077,1.406v4.824c0,0.519-0.119,0.912-0.357,1.178c-0.237,0.266-0.546,0.398-0.926,0.398
				c-0.387,0-0.699-0.135-0.94-0.408c-0.241-0.271-0.36-0.662-0.36-1.168v-4.322c0-0.853-0.119-1.508-0.356-1.961
				c-0.238-0.451-0.711-0.68-1.421-0.68c-0.461,0-0.883,0.139-1.263,0.414c-0.38,0.275-0.658,0.654-0.836,1.135
				c-0.126,0.387-0.189,1.108-0.189,2.166v3.248c0,0.525-0.123,0.92-0.365,1.184c-0.244,0.262-0.559,0.393-0.945,0.393
				c-0.374,0-0.681-0.135-0.922-0.408c-0.24-0.271-0.36-0.662-0.36-1.168v-7.494c0-0.494,0.107-0.863,0.322-1.108
				c0.216-0.242,0.51-0.365,0.883-0.365c0.229,0,0.435,0.055,0.619,0.162c0.183,0.109,0.33,0.27,0.441,0.484
				C331.097,766.086,331.152,766.35,331.152,766.66z"/>
			<path style="fill:#CFBDAC;" d="M346.927,771.135h-5.071c0.007,0.588,0.124,1.107,0.356,1.557c0.23,0.449,0.537,0.789,0.921,1.016
				c0.382,0.229,0.806,0.342,1.268,0.342c0.31,0,0.594-0.035,0.851-0.107c0.256-0.074,0.504-0.188,0.746-0.344
				c0.239-0.154,0.461-0.32,0.665-0.498c0.201-0.178,0.464-0.42,0.787-0.723c0.133-0.113,0.323-0.172,0.57-0.172
				c0.266,0,0.482,0.074,0.646,0.221c0.165,0.147,0.247,0.35,0.247,0.617c0,0.234-0.092,0.506-0.275,0.82
				c-0.185,0.314-0.461,0.615-0.832,0.902c-0.37,0.289-0.835,0.527-1.396,0.717c-0.561,0.191-1.205,0.285-1.933,0.285
				c-1.665,0-2.96-0.475-3.886-1.424c-0.923-0.949-1.386-2.238-1.386-3.865c0-0.768,0.114-1.479,0.342-2.133
				c0.227-0.656,0.56-1.217,0.998-1.685c0.436-0.469,0.975-0.828,1.614-1.078c0.639-0.25,1.349-0.375,2.128-0.375
				c1.013,0,1.881,0.213,2.605,0.641c0.726,0.428,1.269,0.98,1.63,1.656c0.36,0.678,0.542,1.369,0.542,2.07
				c0,0.654-0.187,1.076-0.561,1.27C348.131,771.037,347.604,771.135,346.927,771.135z M341.855,769.662h4.701
				c-0.063-0.887-0.303-1.551-0.717-1.99c-0.415-0.441-0.961-0.66-1.639-0.66c-0.647,0-1.177,0.223-1.592,0.668
				C342.194,768.127,341.944,768.787,341.855,769.662z"/>
			<path style="fill:#CFBDAC;" d="M357.496,774.287v-0.258c-0.348,0.398-0.691,0.725-1.03,0.973
				c-0.339,0.252-0.705,0.441-1.102,0.57c-0.395,0.133-0.827,0.195-1.296,0.195c-0.621,0-1.195-0.131-1.724-0.393
				c-0.529-0.264-0.986-0.639-1.373-1.127c-0.387-0.486-0.679-1.058-0.878-1.719c-0.2-0.658-0.3-1.371-0.3-2.137
				c0-1.621,0.396-2.885,1.188-3.791c0.791-0.904,1.833-1.358,3.125-1.358c0.747,0,1.377,0.129,1.89,0.385s1.014,0.652,1.5,1.182
				v-3.826c0-0.533,0.106-0.934,0.319-1.207c0.211-0.271,0.515-0.408,0.907-0.408c0.392,0,0.694,0.125,0.906,0.375
				c0.212,0.252,0.318,0.619,0.318,1.108v11.435c0,0.494-0.113,0.863-0.342,1.111c-0.228,0.246-0.521,0.369-0.883,0.369
				c-0.354,0-0.647-0.127-0.879-0.383C357.612,775.127,357.496,774.762,357.496,774.287z M352.396,770.479
				c0,0.703,0.108,1.301,0.327,1.795c0.219,0.494,0.518,0.865,0.898,1.115c0.38,0.25,0.794,0.377,1.243,0.377
				c0.457,0,0.873-0.119,1.249-0.357c0.377-0.236,0.679-0.602,0.902-1.092c0.226-0.49,0.338-1.106,0.338-1.838
				c0-0.691-0.112-1.285-0.338-1.783c-0.224-0.496-0.528-0.875-0.911-1.139c-0.384-0.262-0.803-0.392-1.259-0.392
				c-0.475,0-0.899,0.135-1.272,0.402c-0.373,0.269-0.663,0.654-0.869,1.158C352.499,769.229,352.396,769.813,352.396,770.479z"/>
			<path style="fill:#CFBDAC;" d="M368.095,762.852v3.959c0.487-0.506,0.984-0.894,1.491-1.162c0.506-0.269,1.134-0.404,1.881-0.404
				c0.861,0,1.615,0.205,2.266,0.611c0.647,0.41,1.151,1.002,1.51,1.777c0.357,0.775,0.537,1.695,0.537,2.76
				c0,0.785-0.101,1.504-0.3,2.16c-0.199,0.656-0.489,1.225-0.869,1.705c-0.38,0.48-0.841,0.854-1.382,1.117
				c-0.542,0.262-1.139,0.393-1.79,0.393c-0.399,0-0.775-0.047-1.126-0.143c-0.352-0.094-0.651-0.219-0.897-0.375
				c-0.246-0.154-0.457-0.315-0.632-0.479c-0.174-0.164-0.404-0.412-0.689-0.742v0.258c0,0.486-0.117,0.855-0.352,1.107
				c-0.233,0.25-0.531,0.373-0.893,0.373c-0.367,0-0.66-0.123-0.879-0.373c-0.219-0.252-0.327-0.621-0.327-1.107v-11.322
				c0-0.525,0.105-0.924,0.317-1.191c0.212-0.269,0.509-0.404,0.889-0.404c0.399,0,0.706,0.129,0.921,0.385
				C367.986,762.012,368.095,762.375,368.095,762.852z M368.218,770.555c0,1.031,0.236,1.824,0.708,2.377
				c0.472,0.555,1.091,0.834,1.856,0.834c0.652,0,1.215-0.283,1.686-0.852c0.472-0.566,0.708-1.379,0.708-2.436
				c0-0.684-0.098-1.273-0.294-1.768c-0.197-0.494-0.475-0.875-0.836-1.144c-0.361-0.268-0.782-0.402-1.264-0.402
				c-0.493,0-0.935,0.135-1.32,0.402c-0.386,0.269-0.689,0.658-0.912,1.168C368.329,769.244,368.218,769.852,368.218,770.555z"/>
			<path style="fill:#CFBDAC;" d="M379.141,776.092l0.237-0.58l-3.191-8.035c-0.196-0.461-0.295-0.799-0.295-1.008
				c0-0.221,0.058-0.426,0.171-0.615c0.114-0.191,0.271-0.344,0.47-0.457c0.2-0.115,0.407-0.172,0.623-0.172
				c0.373,0,0.654,0.119,0.846,0.357c0.19,0.236,0.357,0.576,0.503,1.02l2.194,6.383l2.08-5.936c0.164-0.48,0.313-0.857,0.446-1.131
				c0.133-0.272,0.273-0.455,0.422-0.549c0.148-0.096,0.359-0.144,0.632-0.144c0.197,0,0.385,0.053,0.565,0.158
				c0.181,0.104,0.319,0.244,0.418,0.422c0.098,0.178,0.147,0.363,0.147,0.56c-0.026,0.119-0.066,0.291-0.124,0.514
				c-0.058,0.221-0.126,0.447-0.208,0.674l-3.382,8.852c-0.292,0.779-0.576,1.389-0.855,1.832c-0.278,0.443-0.646,0.785-1.106,1.021
				c-0.459,0.238-1.078,0.357-1.856,0.357c-0.76,0-1.33-0.082-1.709-0.246c-0.381-0.166-0.57-0.467-0.57-0.904
				c0-0.297,0.09-0.527,0.271-0.688c0.18-0.162,0.447-0.244,0.801-0.244c0.14,0,0.276,0.019,0.409,0.059
				c0.165,0.037,0.307,0.057,0.427,0.057c0.298,0,0.532-0.043,0.704-0.133c0.17-0.088,0.323-0.242,0.46-0.461
				C378.806,776.838,378.963,776.516,379.141,776.092z"/>
		</g>
		<g>
			<path style="fill:#CFBDAC;" d="M416.703,765.449h0.619v-0.777c0-0.814,0.1-1.457,0.307-1.938
				c0.203-0.478,0.555-0.826,1.047-1.045c0.49-0.217,1.162-0.326,2.016-0.326c1.52,0,2.273,0.367,2.273,1.113
				c0,0.238-0.08,0.445-0.24,0.615c-0.154,0.17-0.344,0.256-0.559,0.256c-0.1,0-0.277-0.018-0.527-0.059
				c-0.236-0.033-0.451-0.057-0.623-0.057c-0.467,0-0.766,0.141-0.904,0.416c-0.127,0.275-0.195,0.668-0.195,1.184v0.617h0.633
				c0.99,0,1.48,0.297,1.48,0.896c0,0.418-0.127,0.69-0.393,0.805c-0.262,0.113-0.623,0.17-1.088,0.17h-0.633v6.871
				c0,0.512-0.121,0.9-0.369,1.168c-0.242,0.273-0.555,0.406-0.943,0.406c-0.367,0-0.67-0.133-0.918-0.406
				c-0.244-0.268-0.363-0.656-0.363-1.168v-6.871h-0.715c-0.389,0-0.682-0.084-0.893-0.262c-0.209-0.17-0.314-0.398-0.314-0.678
				C415.4,765.758,415.834,765.449,416.703,765.449"/>
			<path style="fill:#CFBDAC;" d="M425.193,772.023v2.168c0,0.523-0.133,0.92-0.375,1.18c-0.246,0.266-0.559,0.395-0.938,0.395
				c-0.381,0-0.688-0.131-0.926-0.4c-0.236-0.264-0.361-0.656-0.361-1.174v-7.223c0-1.166,0.42-1.748,1.262-1.748
				c0.434,0,0.742,0.135,0.934,0.408c0.189,0.273,0.295,0.674,0.316,1.207c0.309-0.533,0.625-0.934,0.949-1.207
				c0.332-0.273,0.762-0.408,1.309-0.408c0.549,0,1.072,0.135,1.586,0.408c0.516,0.273,0.772,0.637,0.772,1.084
				c0,0.314-0.111,0.58-0.326,0.781c-0.221,0.209-0.455,0.313-0.707,0.313c-0.1,0-0.33-0.063-0.691-0.18
				c-0.365-0.113-0.69-0.174-0.963-0.174c-0.381,0-0.693,0.103-0.932,0.299c-0.242,0.205-0.432,0.496-0.565,0.887
				c-0.129,0.395-0.219,0.865-0.273,1.404C425.215,770.584,425.193,771.246,425.193,772.023"/>
			<path style="fill:#CFBDAC;" d="M437.113,771.131h-5.074c0.01,0.588,0.125,1.111,0.355,1.559c0.234,0.447,0.539,0.787,0.924,1.017
				c0.385,0.227,0.805,0.34,1.27,0.34c0.31,0,0.592-0.033,0.85-0.111c0.254-0.07,0.504-0.185,0.744-0.342
				c0.242-0.152,0.461-0.318,0.664-0.5c0.203-0.174,0.467-0.416,0.791-0.719c0.135-0.113,0.324-0.174,0.568-0.174
				c0.268,0,0.48,0.074,0.648,0.223c0.166,0.146,0.244,0.35,0.244,0.617c0,0.234-0.09,0.508-0.268,0.818
				c-0.188,0.318-0.463,0.617-0.836,0.906c-0.375,0.285-0.84,0.527-1.398,0.715c-0.559,0.189-1.205,0.285-1.932,0.285
				c-1.67,0-2.963-0.473-3.887-1.422c-0.924-0.951-1.391-2.242-1.391-3.867c0-0.768,0.117-1.479,0.348-2.135
				c0.225-0.658,0.557-1.217,0.998-1.688c0.436-0.471,0.971-0.828,1.613-1.078c0.637-0.25,1.346-0.375,2.127-0.375
				c1.012,0,1.881,0.215,2.607,0.647c0.723,0.422,1.273,0.977,1.629,1.654c0.361,0.68,0.541,1.367,0.541,2.074
				c0,0.648-0.188,1.07-0.561,1.266C438.316,771.035,437.791,771.131,437.113,771.131 M432.039,769.656h4.701
				c-0.063-0.885-0.297-1.549-0.713-1.986c-0.418-0.441-0.959-0.66-1.641-0.66c-0.646,0-1.178,0.221-1.592,0.67
				C432.381,768.125,432.127,768.783,432.039,769.656"/>
			<path style="fill:#CFBDAC;" d="M447.9,771.131h-5.072c0.006,0.588,0.125,1.111,0.353,1.559c0.233,0.447,0.539,0.787,0.922,1.017
				c0.383,0.227,0.805,0.34,1.272,0.34c0.307,0,0.592-0.033,0.844-0.111c0.26-0.07,0.506-0.185,0.75-0.342
				c0.242-0.152,0.461-0.318,0.664-0.5c0.199-0.174,0.465-0.416,0.789-0.719c0.135-0.113,0.326-0.174,0.568-0.174
				c0.268,0,0.482,0.074,0.65,0.223c0.164,0.146,0.24,0.35,0.24,0.617c0,0.234-0.088,0.508-0.273,0.818
				c-0.178,0.318-0.455,0.617-0.83,0.906c-0.371,0.285-0.84,0.527-1.396,0.715c-0.557,0.189-1.207,0.285-1.934,0.285
				c-1.668,0-2.959-0.473-3.887-1.422c-0.924-0.951-1.389-2.242-1.389-3.867c0-0.768,0.115-1.479,0.348-2.135
				c0.227-0.658,0.559-1.217,0.996-1.688c0.436-0.471,0.973-0.828,1.613-1.078c0.639-0.25,1.352-0.375,2.129-0.375
				c1.01,0,1.879,0.215,2.613,0.647c0.721,0.422,1.266,0.977,1.621,1.654c0.359,0.68,0.545,1.367,0.545,2.074
				c0,0.648-0.191,1.07-0.56,1.266C449.102,771.035,448.576,771.131,447.9,771.131 M442.828,769.656h4.701
				c-0.065-0.885-0.305-1.549-0.715-1.986c-0.422-0.441-0.963-0.66-1.643-0.66c-0.646,0-1.176,0.221-1.594,0.67
				C443.166,768.125,442.912,768.783,442.828,769.656"/>
			<path style="fill:#CFBDAC;" d="M453.58,766.68v0.31c0.486-0.602,0.994-1.043,1.525-1.324c0.517-0.285,1.117-0.428,1.781-0.428
				c0.795,0,1.535,0.209,2.207,0.617c0.672,0.414,1.199,1.016,1.59,1.807c0.389,0.795,0.586,1.73,0.586,2.815
				c0,0.795-0.113,1.531-0.336,2.201c-0.225,0.668-0.537,1.227-0.93,1.68c-0.393,0.449-0.855,0.801-1.389,1.045
				c-0.543,0.242-1.111,0.363-1.728,0.363c-0.738,0-1.363-0.148-1.865-0.447c-0.502-0.291-0.982-0.733-1.441-1.305v3.893
				c0,1.135-0.416,1.709-1.244,1.709c-0.49,0-0.809-0.146-0.971-0.439c-0.152-0.299-0.234-0.723-0.234-1.291v-11.193
				c0-0.494,0.107-0.859,0.32-1.107c0.215-0.238,0.512-0.363,0.885-0.363c0.369,0,0.666,0.125,0.897,0.373
				C453.467,765.848,453.58,766.205,453.58,766.68 M458.664,770.447c0-0.686-0.105-1.273-0.315-1.764
				c-0.209-0.492-0.498-0.867-0.865-1.127c-0.367-0.264-0.783-0.396-1.232-0.396c-0.715,0-1.318,0.283-1.809,0.844
				c-0.492,0.566-0.74,1.394-0.74,2.492c0,1.027,0.244,1.834,0.736,2.406c0.486,0.574,1.086,0.859,1.813,0.859
				c0.428,0,0.83-0.127,1.197-0.373c0.371-0.252,0.664-0.627,0.883-1.127C458.553,771.76,458.664,771.154,458.664,770.447"/>
			<path style="fill:#CFBDAC;" d="M463.881,764.014c-0.363,0-0.67-0.115-0.924-0.336c-0.26-0.223-0.387-0.531-0.387-0.935
				c0-0.369,0.131-0.67,0.397-0.91c0.262-0.234,0.566-0.355,0.914-0.355c0.34,0,0.635,0.105,0.892,0.318
				c0.26,0.219,0.391,0.535,0.391,0.947c0,0.398-0.127,0.711-0.377,0.935C464.533,763.898,464.232,764.014,463.881,764.014
				 M465.164,766.691v7.502c0,0.516-0.123,0.908-0.369,1.172c-0.25,0.27-0.561,0.4-0.941,0.4c-0.381,0-0.685-0.133-0.928-0.406
				c-0.234-0.275-0.355-0.664-0.355-1.166v-7.428c0-0.51,0.121-0.895,0.355-1.154c0.242-0.264,0.547-0.391,0.928-0.391
				c0.381,0,0.691,0.127,0.941,0.391C465.041,765.871,465.164,766.234,465.164,766.691"/>
			<path style="fill:#CFBDAC;" d="M473.523,774.582l-2.283-3.766l-1.408,1.328v2.066c0,0.498-0.133,0.881-0.397,1.148
				c-0.258,0.273-0.566,0.406-0.906,0.406c-0.398,0-0.715-0.131-0.941-0.4c-0.227-0.264-0.344-0.656-0.344-1.174v-11.063
				c0-0.574,0.115-1.012,0.332-1.314c0.223-0.305,0.545-0.451,0.953-0.451c0.398,0,0.713,0.137,0.949,0.41
				c0.234,0.272,0.354,0.674,0.354,1.203v6.293l2.916-3.063c0.361-0.377,0.633-0.641,0.826-0.779c0.19-0.139,0.42-0.207,0.69-0.207
				c0.326,0,0.594,0.104,0.816,0.309c0.211,0.205,0.32,0.465,0.32,0.773c0,0.379-0.354,0.889-1.055,1.522l-1.377,1.262l2.658,4.184
				c0.193,0.313,0.34,0.543,0.424,0.705c0.084,0.16,0.131,0.32,0.131,0.463c0,0.412-0.115,0.734-0.342,0.975
				c-0.225,0.236-0.523,0.354-0.885,0.354c-0.316,0-0.564-0.08-0.734-0.256C474.051,775.338,473.814,775.027,473.523,774.582"/>
			<path style="fill:#CFBDAC;" d="M479.16,775.766c-0.393,0-0.729-0.125-1.014-0.381c-0.285-0.248-0.43-0.606-0.43-1.065
				c0-0.385,0.139-0.719,0.41-0.994c0.275-0.279,0.607-0.42,1.008-0.42c0.398,0,0.736,0.141,1.023,0.412
				c0.279,0.275,0.422,0.613,0.422,1.002c0,0.453-0.143,0.809-0.422,1.061C479.871,775.641,479.539,775.766,479.16,775.766"/>
			<path style="fill:#CFBDAC;" d="M492.059,772.557c0,0.32-0.098,0.668-0.291,1.033c-0.191,0.371-0.488,0.719-0.887,1.051
				c-0.395,0.332-0.891,0.602-1.494,0.803c-0.602,0.203-1.281,0.307-2.031,0.307c-1.605,0-2.858-0.469-3.758-1.4
				c-0.895-0.935-1.346-2.189-1.346-3.76c0-1.068,0.205-2.006,0.619-2.824c0.408-0.814,1.004-1.447,1.781-1.895
				c0.779-0.447,1.717-0.67,2.795-0.67c0.674,0,1.287,0.098,1.852,0.295c0.561,0.195,1.033,0.451,1.426,0.76
				c0.387,0.314,0.686,0.642,0.889,0.992c0.207,0.352,0.309,0.68,0.309,0.986c0,0.309-0.113,0.572-0.344,0.787
				c-0.234,0.215-0.516,0.324-0.838,0.324c-0.219,0-0.398-0.057-0.541-0.166c-0.145-0.111-0.305-0.289-0.479-0.541
				c-0.318-0.478-0.646-0.842-0.996-1.08c-0.344-0.242-0.781-0.361-1.314-0.361c-0.762,0-1.383,0.297-1.854,0.896
				c-0.467,0.596-0.703,1.42-0.703,2.455c0,0.488,0.063,0.939,0.184,1.348c0.117,0.406,0.291,0.756,0.52,1.043
				c0.23,0.287,0.504,0.506,0.826,0.654c0.324,0.154,0.682,0.227,1.065,0.227c0.521,0,0.967-0.121,1.336-0.361
				c0.377-0.24,0.703-0.607,0.986-1.102c0.158-0.291,0.328-0.518,0.51-0.684c0.182-0.164,0.408-0.25,0.676-0.25
				c0.316,0,0.58,0.123,0.785,0.363C491.951,772.027,492.059,772.285,492.059,772.557"/>
			<path style="fill:#CFBDAC;" d="M503.248,770.496c0,0.77-0.121,1.484-0.355,2.139c-0.246,0.652-0.592,1.213-1.049,1.678
				c-0.455,0.469-1.002,0.828-1.633,1.08c-0.639,0.248-1.35,0.375-2.139,0.375c-0.785,0-1.492-0.127-2.121-0.383
				c-0.623-0.248-1.17-0.613-1.625-1.082c-0.461-0.477-0.809-1.033-1.053-1.676c-0.228-0.645-0.35-1.356-0.35-2.131
				c0-0.787,0.123-1.506,0.357-2.158c0.242-0.654,0.59-1.213,1.039-1.674c0.451-0.461,0.994-0.816,1.631-1.07
				c0.644-0.248,1.35-0.373,2.121-0.373c0.785,0,1.498,0.125,2.139,0.381c0.639,0.252,1.184,0.615,1.645,1.08
				c0.457,0.475,0.803,1.029,1.039,1.672C503.129,769.004,503.248,769.713,503.248,770.496 M500.645,770.496
				c0-1.059-0.234-1.881-0.697-2.469c-0.463-0.596-1.09-0.889-1.875-0.889c-0.508,0-0.955,0.133-1.342,0.395
				c-0.387,0.262-0.682,0.648-0.891,1.164c-0.209,0.514-0.314,1.113-0.314,1.799c0,0.678,0.102,1.268,0.309,1.773
				c0.209,0.51,0.502,0.897,0.887,1.166c0.385,0.266,0.834,0.404,1.352,0.404c0.785,0,1.412-0.297,1.875-0.892
				C500.41,772.357,500.645,771.537,500.645,770.496"/>
			<path style="fill:#CFBDAC;" d="M513.141,770.685v3.447c0,0.547-0.121,0.951-0.369,1.227c-0.25,0.273-0.572,0.408-0.978,0.408
				c-0.393,0-0.713-0.135-0.951-0.408c-0.246-0.275-0.371-0.68-0.371-1.227v-4.131c0-0.654-0.021-1.162-0.064-1.525
				c-0.045-0.354-0.168-0.654-0.361-0.883c-0.197-0.234-0.51-0.352-0.932-0.352c-0.85,0-1.406,0.291-1.676,0.881
				c-0.268,0.576-0.406,1.414-0.406,2.508v3.502c0,0.537-0.123,0.945-0.361,1.223c-0.25,0.273-0.568,0.412-0.965,0.412
				c-0.396,0-0.717-0.139-0.967-0.412c-0.252-0.277-0.377-0.686-0.377-1.223v-7.42c0-0.488,0.111-0.859,0.336-1.111
				c0.228-0.256,0.525-0.381,0.889-0.381c0.358,0,0.652,0.123,0.893,0.355c0.236,0.238,0.354,0.566,0.354,0.984v0.244
				c0.453-0.535,0.936-0.932,1.445-1.18c0.516-0.26,1.082-0.387,1.713-0.387c0.65,0,1.211,0.131,1.678,0.391
				c0.469,0.26,0.853,0.654,1.16,1.176c0.44-0.527,0.908-0.922,1.41-1.18c0.5-0.258,1.053-0.387,1.662-0.387
				c0.705,0,1.32,0.143,1.834,0.42c0.51,0.277,0.893,0.68,1.146,1.195c0.221,0.473,0.33,1.209,0.33,2.217v5.063
				c0,0.547-0.121,0.951-0.367,1.227c-0.246,0.273-0.574,0.408-0.979,0.408c-0.394,0-0.715-0.139-0.965-0.412
				c-0.25-0.277-0.377-0.686-0.377-1.223v-4.361c0-0.559-0.023-1.004-0.068-1.338c-0.047-0.338-0.178-0.621-0.383-0.848
				c-0.213-0.227-0.531-0.344-0.953-0.344c-0.342,0-0.666,0.107-0.975,0.309c-0.307,0.197-0.547,0.477-0.721,0.813
				C513.238,768.801,513.141,769.576,513.141,770.685"/>
		</g>
		<g>
			<path style="fill:#CFBDAC;" d="M392.435,769.867c-0.002-0.004-0.002-0.01-0.002-0.018
				C392.434,769.857,392.434,769.863,392.435,769.867z"/>
			<path style="fill:#CFBDAC;" d="M392.566,770.697c0.002,0,0.002,0,0.003,0c-0.05-0.236-0.089-0.471-0.119-0.703
				C392.48,770.229,392.52,770.463,392.566,770.697z"/>
			<path style="fill:#CFBDAC;" d="M393.425,773.104c-0.006-0.01-0.011-0.022-0.018-0.033
				C393.414,773.082,393.419,773.094,393.425,773.104z"/>
			<path style="fill:#CFBDAC;" d="M393.343,772.943c-0.023-0.045-0.044-0.09-0.066-0.135
				C393.299,772.856,393.32,772.898,393.343,772.943z"/>
			<path style="fill:#CFBDAC;" d="M392.808,771.623c0.127,0.4,0.279,0.789,0.457,1.158c-0.181-0.377-0.33-0.766-0.454-1.158
				C392.81,771.623,392.809,771.623,392.808,771.623z"/>
			<path style="fill:#CFBDAC;" d="M402.473,759.932c0.501,0,0.871,0.039,1.295,0.111l0.121-0.764c0,0-1.172-0.359-2.711-0.234
				l-0.121-0.414c0.479-0.102,0.838-0.527,0.838-1.035c0-0.582-0.475-1.053-1.058-1.053s-1.056,0.471-1.056,1.053
				c0,0.508,0.358,0.934,0.836,1.035l0.134,0.463c-1.634,0.225-2.935,0.861-2.935,0.861l0.23,0.705
				c0.988-0.328,1.846-0.529,2.624-0.613C401.433,759.967,402.006,759.932,402.473,759.932z"/>
			<path style="fill:#CFBDAC;" d="M393.405,763.789l0.006-0.008c0.038-0.049,0.075-0.096,0.113-0.143l-0.314-0.225l-0.487-0.358
				c-0.027,0.039-0.795,0.744-1.401,2.049c-0.025-0.041-0.056-0.082-0.09-0.119c-0.182-0.199-0.436-0.301-0.759-0.295
				c-0.004,0-0.009,0-0.015,0c-0.199,0-0.337-0.066-0.427-0.146c0.09-0.113,0.144-0.256,0.144-0.414c0-0.367-0.3-0.668-0.67-0.668
				c-0.368,0-0.668,0.301-0.668,0.668c0,0.371,0.3,0.67,0.668,0.67c0.059,0,0.113-0.01,0.167-0.021
				c0.165,0.184,0.426,0.342,0.808,0.334c0.197-0.002,0.341,0.049,0.438,0.156c0.111,0.121,0.148,0.295,0.16,0.428
				c-0.001,0.002-0.001,0.004-0.003,0.004c-0.436,1.189-0.311,2.67-0.311,2.67l1.058,0.043c0.022-0.539,0.099-1.483,0.371-2.231
				C392.719,764.734,393.378,763.828,393.405,763.789z"/>
			<path style="fill:#CFBDAC;" d="M411.672,760.815c-0.367,0-0.668,0.299-0.668,0.67c0,0.057,0.008,0.111,0.023,0.164
				c-0.184,0.166-0.344,0.428-0.338,0.811c0.004,0.197-0.047,0.34-0.154,0.438c-0.084,0.074-0.191,0.115-0.295,0.141
				c-0.787-1.104-1.756-1.775-1.756-1.775l-0.76,0.813c0.574,0.521,1.16,1.176,1.729,1.99c0.395,0.564,0.799,1.291,1.137,2.016
				l1.023-0.486c0,0-0.467-1.156-1.125-2.192c0.113-0.041,0.229-0.103,0.33-0.193c0.201-0.18,0.299-0.436,0.293-0.758
				c-0.002-0.207,0.066-0.348,0.148-0.441c0.115,0.088,0.258,0.142,0.412,0.142c0.371,0,0.67-0.299,0.67-0.668
				C412.342,761.113,412.043,760.815,411.672,760.815z"/>
			<path style="fill:#CFBDAC;" d="M409.016,770.018c-1.41,0.686-3.729,1.594-6.782,2.02c-1.198,0.166-2.359,0.227-3.428,0.227
				c-1.391,0-2.62-0.103-3.563-0.223c-1.076-0.135-1.918-0.301-2.433-0.418c0.124,0.393,0.274,0.781,0.454,1.158
				c0.003,0.01,0.008,0.021,0.013,0.027c0.022,0.045,0.043,0.09,0.066,0.135c0.021,0.043,0.043,0.086,0.064,0.127
				c0.007,0.012,0.012,0.023,0.018,0.033c0.303,0.57,0.666,1.094,1.08,1.549c1.44,1.574,2.907,1.824,2.921,1.826l0.023,0.002
				l0.022,0.008c0.013,0.006,1.313,0.426,3.291,0.426c1.945,0,3.855-0.393,5.674-1.168c1.348-0.69,2.623-1.736,3.254-2.67
				c0.488-0.723,0.842-1.492,1.051-2.293c0.111-0.426,0.199-1.107,0.146-1.826C410.49,769.225,409.863,769.604,409.016,770.018z"/>
			<path style="fill:#CFBDAC;" d="M393.857,764.123c-0.041,0.061-0.652,0.926-1.135,2.254c-0.362,0.994-0.346,2.443-0.346,2.459
				v0.004c0,0.34,0.018,0.676,0.057,1.01c0,0.008,0,0.014,0.002,0.018c0.004,0.043,0.011,0.084,0.015,0.127
				c0.03,0.233,0.069,0.467,0.119,0.703c0.7,0.178,4.878,1.152,9.548,0.502c2.928-0.408,5.15-1.273,6.5-1.928
				c1.121-0.543,1.842-1.035,2.119-1.238c-0.277-1.027-1.041-2.641-1.742-3.646c-2.006-2.865-4.168-3.6-5.277-3.783
				c-0.425-0.068-0.764-0.109-1.244-0.109c-0.447,0-1.002,0.037-1.743,0.115c-0.743,0.076-1.571,0.272-2.532,0.596
				c-1.348,0.451-2.567,1.158-3.526,2.047l-0.033,0.031C394.496,763.414,394.199,763.69,393.857,764.123z M406.127,763.457
				c0.961,0,1.744,0.781,1.744,1.742c0,0.963-0.783,1.744-1.744,1.744c-0.961,0-1.742-0.781-1.742-1.744
				C404.385,764.238,405.166,763.457,406.127,763.457z M397.886,763.387c1.557,0,2.816,1.262,2.816,2.818
				c0,1.555-1.26,2.814-2.816,2.814c-1.555,0-2.816-1.26-2.816-2.814C395.069,764.648,396.331,763.387,397.886,763.387z"/>
		</g>
	</g>
</g>
</svg>
